<?xml version="1.0" encoding="UTF-8"?>
<!DOCTYPE svg PUBLIC "-//W3C//DTD SVG 1.1//EN" "http://www.w3.org/Graphics/SVG/1.1/DTD/svg11.dtd">
<svg xmlns="http://www.w3.org/2000/svg" version="1.1" width="245px" height="229px" style="shape-rendering:geometricPrecision; text-rendering:geometricPrecision; image-rendering:optimizeQuality; fill-rule:evenodd; clip-rule:evenodd" xmlns:xlink="http://www.w3.org/1999/xlink">
<g><path style="opacity:0.752" fill="#263238" d="M 145.5,10.5 C 154.167,10.5 162.833,10.5 171.5,10.5C 171.33,11.8221 171.663,12.9887 172.5,14C 184.847,14.8326 197.18,14.6659 209.5,13.5C 209.833,12.8333 210.167,12.1667 210.5,11.5C 219.147,10.3348 227.814,10.1681 236.5,11C 239,12.1667 240.833,14 242,16.5C 242.667,79.8333 242.667,143.167 242,206.5C 241.315,209.057 239.815,210.891 237.5,212C 206.5,212.667 175.5,212.667 144.5,212C 142.333,211.167 140.833,209.667 140,207.5C 139.333,143.833 139.333,80.1667 140,16.5C 141.021,13.6499 142.854,11.6499 145.5,10.5 Z M 145.5,13.5 C 153.174,13.3336 160.841,13.5003 168.5,14C 169.5,15 170.5,16 171.5,17C 184.5,17.6667 197.5,17.6667 210.5,17C 211.357,16.3109 212.023,15.4776 212.5,14.5C 220.479,13.3351 228.479,13.1684 236.5,14C 239.029,16.6417 240.029,19.8084 239.5,23.5C 207.167,23.5 174.833,23.5 142.5,23.5C 141.857,19.5669 142.857,16.2336 145.5,13.5 Z M 142.5,25.5 C 146.514,25.3345 150.514,25.5012 154.5,26C 145.112,28.9499 142.279,35.1166 146,44.5C 151.925,50.5922 158.092,50.9255 164.5,45.5C 170.282,35.5613 167.615,29.0613 156.5,26C 184.165,25.5 211.831,25.3334 239.5,25.5C 239.667,85.8343 239.5,146.168 239,206.5C 238.167,207.333 237.333,208.167 236.5,209C 205.833,209.667 175.167,209.667 144.5,209C 143.874,208.25 143.374,207.416 143,206.5C 142.5,146.168 142.333,85.8343 142.5,25.5 Z M 154.5,28.5 C 153.828,29.2674 152.995,29.9341 152,30.5C 151.812,28.9387 152.645,28.272 154.5,28.5 Z M 163.5,32.5 C 165.502,34.5255 165.836,36.8589 164.5,39.5C 163.526,37.2573 163.192,34.924 163.5,32.5 Z M 146.5,34.5 C 147.534,35.6871 148.867,36.5204 150.5,37C 146.916,42.9353 145.582,42.102 146.5,34.5 Z M 148.5,43.5 C 150.674,43.7497 152.341,44.7497 153.5,46.5C 151.067,46.7271 149.401,45.7271 148.5,43.5 Z M 153.5,46.5 C 155.819,45.833 158.153,45.6664 160.5,46C 158.105,47.5978 155.772,47.7645 153.5,46.5 Z M 234.5,108.5 C 228.569,104.322 222.902,104.655 217.5,109.5C 221.5,103.104 226.833,101.937 233.5,106C 234.252,106.671 234.586,107.504 234.5,108.5 Z M 217.5,118.5 C 222.482,121.551 227.816,122.217 233.5,120.5C 230.25,124.477 226.25,125.31 221.5,123C 219.616,121.951 218.282,120.451 217.5,118.5 Z M 235.5,118.5 C 235.167,119.5 234.5,120.167 233.5,120.5C 233.5,119.167 234.167,118.5 235.5,118.5 Z M 232.5,166.5 C 227.533,165.962 222.866,166.629 218.5,168.5C 220.072,165.366 222.738,163.7 226.5,163.5C 229.102,163.467 231.102,164.467 232.5,166.5 Z M 232.5,166.5 C 233.833,166.5 234.5,167.167 234.5,168.5C 233.5,168.167 232.833,167.5 232.5,166.5 Z M 218.5,168.5 C 218.5,169.167 218.5,169.833 218.5,170.5C 217.662,170.842 217.328,171.508 217.5,172.5C 216.147,170.872 216.481,169.538 218.5,168.5 Z M 218.5,178.5 C 220.922,180.125 223.588,181.459 226.5,182.5C 229.279,181.602 231.612,180.269 233.5,178.5C 235.49,178.993 235.49,180.16 233.5,182C 227.156,185.944 221.823,184.944 217.5,179C 217.728,178.601 218.062,178.435 218.5,178.5 Z"/></g>
<g><path style="opacity:0.781" fill="#253138" d="M 218.5,14.5 C 220.746,15.2096 223.08,15.7096 225.5,16C 226.647,18.0846 225.98,19.5846 223.5,20.5C 222.522,20.0233 221.689,19.3567 221,18.5C 218.544,20.3213 215.711,20.988 212.5,20.5C 212.5,19.1667 212.5,17.8333 212.5,16.5C 214.898,16.7406 216.898,16.0739 218.5,14.5 Z"/></g>
<g><path style="opacity:0.715" fill="#253137" d="M 227.5,15.5 C 230.998,14.9547 233.998,15.788 236.5,18C 233.998,20.212 230.998,21.0453 227.5,20.5C 227.5,18.8333 227.5,17.1667 227.5,15.5 Z"/></g>
<g><path style="opacity:0.376" fill="#253137" d="M 147.5,15.5 C 151.157,16.6418 154.823,16.8085 158.5,16C 159.38,17.3561 159.714,18.8561 159.5,20.5C 155.445,20.8242 151.445,20.4909 147.5,19.5C 148.363,18.2736 148.363,16.9403 147.5,15.5 Z"/></g>
<g><path style="opacity:0.874" fill="#263138" d="M 169.5,31.5 C 171.886,32.3733 173.886,33.8733 175.5,36C 188.162,36.4999 200.829,36.6666 213.5,36.5C 213.5,43.1667 213.5,49.8333 213.5,56.5C 198.833,56.5 184.167,56.5 169.5,56.5C 169.5,48.1667 169.5,39.8333 169.5,31.5 Z"/></g>
<g><path style="opacity:1" fill="#c0c1c2" d="M 170.5,33.5 C 171.962,34.4577 173.295,35.6244 174.5,37C 187.162,37.4999 199.829,37.6666 212.5,37.5C 212.5,43.5 212.5,49.5 212.5,55.5C 198.5,55.5 184.5,55.5 170.5,55.5C 170.5,48.1667 170.5,40.8333 170.5,33.5 Z"/></g>
<g><path style="opacity:1" fill="#d4d6d7" d="M 154.5,34.5 C 156.04,36.8383 156.706,39.5049 156.5,42.5C 154.554,42.8072 152.887,42.8072 151.5,42.5C 152.376,41.7492 153.376,41.2492 154.5,41C 153.809,39.9326 153.309,38.7659 153,37.5C 152.346,38.6956 151.846,38.6956 151.5,37.5C 152.34,36.265 153.34,35.265 154.5,34.5 Z"/></g>
<g><path style="opacity:0.967" fill="#283337" d="M 30.5,38.5 C 47.2616,38.0291 63.9282,38.5291 80.5,40C 81.1258,40.7504 81.6258,41.5838 82,42.5C 82.8323,52.8494 82.6656,63.1828 81.5,73.5C 79.6419,71.4759 77.9752,69.3092 76.5,67C 60.8333,66.6667 45.1667,66.3333 29.5,66C 28.6667,65.1667 27.8333,64.3333 27,63.5C 26.3333,56.5 26.3333,49.5 27,42.5C 27.6897,40.6498 28.8564,39.3164 30.5,38.5 Z"/></g>
<g><path style="opacity:1" fill="#8b9093" d="M 175.5,42.5 C 182.532,42.1697 189.532,42.503 196.5,43.5C 193,43.8333 189.5,44.1667 186,44.5C 182.098,44.4877 178.598,43.821 175.5,42.5 Z"/></g>
<g><path style="opacity:1" fill="#787e81" d="M 197.5,42.5 C 201.226,42.1774 204.893,42.5108 208.5,43.5C 206.667,43.8333 204.833,44.1667 203,44.5C 200.705,44.4535 198.871,43.7868 197.5,42.5 Z"/></g>
<g><path style="opacity:1" fill="#aa8910" d="M 35.5,47.5 C 36.1614,48.7175 36.8281,50.0508 37.5,51.5C 38.1667,50.1667 38.8333,48.8333 39.5,47.5C 40.8333,50.8333 40.8333,54.1667 39.5,57.5C 38.052,50.9216 36.8854,50.9216 36,57.5C 35.5017,54.1832 35.335,50.8499 35.5,47.5 Z"/></g>
<g><path style="opacity:1" fill="#796922" d="M 41.5,47.5 C 42.7773,48.6936 43.4439,50.3603 43.5,52.5C 43.1667,54.1667 42.8333,55.8333 42.5,57.5C 41.513,54.2317 41.1796,50.8984 41.5,47.5 Z"/></g>
<g><path style="opacity:1" fill="#a18315" d="M 45.5,48.5 C 46.9464,47.3871 48.6131,47.2204 50.5,48C 49.8702,51.1292 49.2036,54.2959 48.5,57.5C 48.0935,54.0609 47.0935,51.0609 45.5,48.5 Z"/></g>
<g><path style="opacity:1" fill="#9d8014" d="M 51.5,47.5 C 53.045,48.2297 53.8784,49.563 54,51.5C 54.2189,50.062 54.7189,48.7287 55.5,47.5C 56.8333,50.8333 56.8333,54.1667 55.5,57.5C 54.7189,56.2713 54.2189,54.938 54,53.5C 53.7811,54.938 53.2811,56.2713 52.5,57.5C 51.513,54.2317 51.1796,50.8984 51.5,47.5 Z"/></g>
<g><path style="opacity:1" fill="#a08212" d="M 57.5,47.5 C 58.8734,47.3433 60.2068,47.51 61.5,48C 58.8333,49.3333 58.8333,50.6667 61.5,52C 58.9422,53.3799 58.9422,54.8799 61.5,56.5C 60.3112,57.4287 58.9778,57.762 57.5,57.5C 57.5,54.1667 57.5,50.8333 57.5,47.5 Z"/></g>
<g><path style="opacity:1" fill="#a48510" d="M 72.5,47.5 C 72.5,47.8333 72.5,48.1667 72.5,48.5C 69.8753,49.4577 69.8753,50.6243 72.5,52C 69.8753,53.3757 69.8753,54.5423 72.5,55.5C 72.5,56.1667 72.5,56.8333 72.5,57.5C 71.1667,57.5 69.8333,57.5 68.5,57.5C 68.5,54.1667 68.5,50.8333 68.5,47.5C 69.8333,47.5 71.1667,47.5 72.5,47.5 Z"/></g>
<g><path style="opacity:1" fill="#2e3636" d="M 72.5,48.5 C 73.8333,50.8333 73.8333,53.1667 72.5,55.5C 69.8753,54.5423 69.8753,53.3757 72.5,52C 69.8753,50.6243 69.8753,49.4577 72.5,48.5 Z"/></g>
<g><path style="opacity:1" fill="#92791a" d="M 62.5,47.5 C 64.1667,47.5 65.8333,47.5 67.5,47.5C 67.8204,50.8984 67.487,54.2317 66.5,57.5C 65.7189,56.2713 65.2189,54.938 65,53.5C 64.7811,54.938 64.2811,56.2713 63.5,57.5C 62.513,54.2317 62.1796,50.8984 62.5,47.5 Z"/></g>
<g><path style="opacity:1" fill="#776722" d="M 72.5,48.5 C 72.5,48.1667 72.5,47.8333 72.5,47.5C 73.5,47.5 74.5,47.5 75.5,47.5C 75.5,50.8333 75.5,54.1667 75.5,57.5C 74.5,57.5 73.5,57.5 72.5,57.5C 72.5,56.8333 72.5,56.1667 72.5,55.5C 73.8333,53.1667 73.8333,50.8333 72.5,48.5 Z"/></g>
<g><path style="opacity:0.624" fill="#2e393f" d="M 169.5,58.5 C 171.886,59.3733 173.886,60.8733 175.5,63C 188.162,63.4999 200.829,63.6666 213.5,63.5C 213.5,70.5 213.5,77.5 213.5,84.5C 198.833,84.5 184.167,84.5 169.5,84.5C 169.5,75.8333 169.5,67.1667 169.5,58.5 Z"/></g>
<g><path style="opacity:1" fill="#bdbebf" d="M 174.5,64.5 C 186.655,65.4952 198.989,65.8286 211.5,65.5C 211.5,71.1667 211.5,76.8333 211.5,82.5C 197.833,82.5 184.167,82.5 170.5,82.5C 170.17,75.4684 170.503,68.4684 171.5,61.5C 172.855,62.1882 173.855,63.1882 174.5,64.5 Z"/></g>
<g><path style="opacity:1" fill="#8e9295" d="M 174.5,64.5 C 187.167,64.5 199.833,64.5 212.5,64.5C 212.823,70.69 212.49,76.69 211.5,82.5C 211.5,76.8333 211.5,71.1667 211.5,65.5C 198.989,65.8286 186.655,65.4952 174.5,64.5 Z"/></g>
<g><path style="opacity:0.778" fill="#263237" d="M 211.5,108.5 C 213.486,125.468 214.153,142.801 213.5,160.5C 198.833,160.5 184.167,160.5 169.5,160.5C 169.5,144.833 169.5,129.167 169.5,113.5C 182.171,113.667 194.838,113.5 207.5,113C 209.041,111.629 210.375,110.129 211.5,108.5 Z"/></g>
<g><path style="opacity:0.565" fill="#2a353a" d="M 223.5,101.5 C 236.341,101.838 240.841,108.171 237,120.5C 228.874,128.804 221.541,128.137 215,118.5C 213.124,110.251 215.957,104.584 223.5,101.5 Z M 234.5,108.5 C 228.569,104.322 222.902,104.655 217.5,109.5C 221.5,103.104 226.833,101.937 233.5,106C 234.252,106.671 234.586,107.504 234.5,108.5 Z M 217.5,118.5 C 222.482,121.551 227.816,122.217 233.5,120.5C 230.25,124.477 226.25,125.31 221.5,123C 219.616,121.951 218.282,120.451 217.5,118.5 Z M 235.5,118.5 C 235.167,119.5 234.5,120.167 233.5,120.5C 233.5,119.167 234.167,118.5 235.5,118.5 Z"/></g>
<g><path style="opacity:1" fill="#b5900a" d="M 224.5,110.5 C 225.601,109.402 226.934,109.235 228.5,110C 227.318,111.768 225.985,111.935 224.5,110.5 Z"/></g>
<g><path style="opacity:1" fill="#d2d5d6" d="M 229.5,110.5 C 231.973,110.604 232.639,111.604 231.5,113.5C 229.129,113.108 228.462,112.108 229.5,110.5 Z"/></g>
<g><path style="opacity:1" fill="#a28317" d="M 211.5,110.5 C 212.496,126.658 212.83,142.991 212.5,159.5C 198.5,159.5 184.5,159.5 170.5,159.5C 170.5,144.5 170.5,129.5 170.5,114.5C 183.171,114.667 195.838,114.5 208.5,114C 209.71,112.961 210.71,111.794 211.5,110.5 Z"/></g>
<g><path style="opacity:1" fill="#9ca1a4" d="M 220.5,116.5 C 219.903,116.265 219.57,115.765 219.5,115C 220.289,113.374 221.289,111.874 222.5,110.5C 223.308,110.808 223.975,111.308 224.5,112C 222.249,112.748 220.916,114.248 220.5,116.5 Z"/></g>
<g><path style="opacity:1" fill="#917817" d="M 222.5,117.5 C 222.948,115.535 223.948,115.202 225.5,116.5C 224.675,117.386 223.675,117.719 222.5,117.5 Z"/></g>
<g><path style="opacity:1" fill="#9a7f13" d="M 230.5,117.5 C 228.663,117.361 228.33,116.694 229.5,115.5C 230.298,115.957 230.631,116.624 230.5,117.5 Z"/></g>
<g><path style="opacity:1" fill="#c8cbcc" d="M 220.5,116.5 C 221.167,116.833 221.833,117.167 222.5,117.5C 225.167,118.833 227.833,118.833 230.5,117.5C 232.507,116.321 232.84,116.821 231.5,119C 228.167,119.667 224.833,119.667 221.5,119C 220.748,118.329 220.414,117.496 220.5,116.5 Z"/></g>
<g><path style="opacity:1" fill="#7b6a1e" d="M 175.5,119.5 C 182.532,119.17 189.532,119.503 196.5,120.5C 193,120.833 189.5,121.167 186,121.5C 182.098,121.488 178.598,120.821 175.5,119.5 Z"/></g>
<g><path style="opacity:1" fill="#6b5f22" d="M 198.5,119.5 C 201.898,119.18 205.232,119.513 208.5,120.5C 204.878,121.659 201.211,121.825 197.5,121C 198.056,120.617 198.389,120.117 198.5,119.5 Z"/></g>
<g><path style="opacity:1" fill="#6f631f" d="M 175.5,128.5 C 177.924,128.192 180.257,128.526 182.5,129.5C 181.333,129.833 180.167,130.167 179,130.5C 177.319,130.392 176.152,129.725 175.5,128.5 Z"/></g>
<g><path style="opacity:1" fill="#71631f" d="M 184.5,128.5 C 188.555,128.176 192.555,128.509 196.5,129.5C 194.5,129.833 192.5,130.167 190.5,130.5C 188.048,130.461 186.048,129.794 184.5,128.5 Z"/></g>
<g><path style="opacity:1" fill="#6f631f" d="M 198.5,128.5 C 201.898,128.18 205.232,128.513 208.5,129.5C 206.833,129.833 205.167,130.167 203.5,130.5C 201.36,130.444 199.694,129.777 198.5,128.5 Z"/></g>
<g><path style="opacity:1" fill="#806d1f" d="M 175.5,137.5 C 182.532,137.17 189.532,137.503 196.5,138.5C 193,138.833 189.5,139.167 186,139.5C 182.098,139.488 178.598,138.821 175.5,137.5 Z"/></g>
<g><path style="opacity:1" fill="#76671f" d="M 175.5,140.5 C 180.875,140.172 186.208,140.505 191.5,141.5C 188.833,141.833 186.167,142.167 183.5,142.5C 180.41,142.478 177.743,141.812 175.5,140.5 Z"/></g>
<g><path style="opacity:1" fill="#76661f" d="M 193.5,140.5 C 198.544,140.173 203.544,140.506 208.5,141.5C 206,141.833 203.5,142.167 201,142.5C 198.071,142.475 195.571,141.809 193.5,140.5 Z"/></g>
<g><path style="opacity:1" fill="#70631f" d="M 175.5,143.5 C 179.555,143.176 183.555,143.509 187.5,144.5C 185.5,144.833 183.5,145.167 181.5,145.5C 179.048,145.461 177.048,144.794 175.5,143.5 Z"/></g>
<g><path style="opacity:1" fill="#6f631f" d="M 189.5,143.5 C 194.214,143.173 198.88,143.507 203.5,144.5C 201.167,144.833 198.833,145.167 196.5,145.5C 193.731,145.471 191.397,144.805 189.5,143.5 Z"/></g>
<g><path style="opacity:1" fill="#76671e" d="M 175.5,152.5 C 179.555,152.176 183.555,152.509 187.5,153.5C 185.5,153.833 183.5,154.167 181.5,154.5C 179.048,154.461 177.048,153.794 175.5,152.5 Z"/></g>
<g><path style="opacity:1" fill="#76661f" d="M 189.5,152.5 C 194.214,152.173 198.88,152.507 203.5,153.5C 201.167,153.833 198.833,154.167 196.5,154.5C 193.731,154.471 191.397,153.805 189.5,152.5 Z"/></g>
<g><path style="opacity:0.542" fill="#263239" d="M 223.5,161.5 C 236.024,162.185 240.524,168.519 237,180.5C 230.983,187.614 224.316,188.28 217,182.5C 212.039,173.065 214.206,166.065 223.5,161.5 Z M 232.5,166.5 C 227.533,165.962 222.866,166.629 218.5,168.5C 220.072,165.366 222.738,163.7 226.5,163.5C 229.102,163.467 231.102,164.467 232.5,166.5 Z M 232.5,166.5 C 233.833,166.5 234.5,167.167 234.5,168.5C 233.5,168.167 232.833,167.5 232.5,166.5 Z M 218.5,168.5 C 218.5,169.167 218.5,169.833 218.5,170.5C 217.662,170.842 217.328,171.508 217.5,172.5C 216.147,170.872 216.481,169.538 218.5,168.5 Z M 218.5,178.5 C 220.922,180.125 223.588,181.459 226.5,182.5C 229.279,181.602 231.612,180.269 233.5,178.5C 235.49,178.993 235.49,180.16 233.5,182C 227.156,185.944 221.823,184.944 217.5,179C 217.728,178.601 218.062,178.435 218.5,178.5 Z"/></g>
<g><path style="opacity:1" fill="#d4d7d8" d="M 229.5,170.5 C 231.5,170.5 232.5,171.5 232.5,173.5C 229.805,173.437 228.805,172.437 229.5,170.5 Z"/></g>
<g><path style="opacity:1" fill="#373f40" d="M 221.5,171.5 C 219.887,172.838 219.387,174.505 220,176.5C 221.025,174.313 222.525,172.646 224.5,171.5C 226.38,171.771 227.713,171.104 228.5,169.5C 229.167,169.5 229.5,169.833 229.5,170.5C 228.805,172.437 229.805,173.437 232.5,173.5C 233.451,174.919 233.784,176.585 233.5,178.5C 231.612,180.269 229.279,181.602 226.5,182.5C 223.588,181.459 220.922,180.125 218.5,178.5C 217.659,176.621 217.325,174.621 217.5,172.5C 217.328,171.508 217.662,170.842 218.5,170.5C 219.117,170.389 219.617,170.056 220,169.5C 220.278,170.416 220.778,171.082 221.5,171.5 Z"/></g>
<g><path style="opacity:1" fill="#b18d0d" d="M 228.5,169.5 C 227.713,171.104 226.38,171.771 224.5,171.5C 225.183,169.824 226.517,169.157 228.5,169.5 Z"/></g>
<g><path style="opacity:0.98" fill="#2b363c" d="M 121.5,135.5 C 121.426,137.411 120.426,138.578 118.5,139C 115.901,139.769 113.401,139.602 111,138.5C 109.545,141.912 107.712,145.079 105.5,148C 101.167,148.333 96.8333,148.667 92.5,149C 89.5709,150.949 86.9043,153.115 84.5,155.5C 84.6082,156.442 84.9415,157.275 85.5,158C 91.2036,158.367 96.8702,159.034 102.5,160C 105.572,162.951 108.739,165.784 112,168.5C 112.988,171.424 113.654,174.424 114,177.5C 120.018,183.538 127.018,187.872 135,190.5C 137.615,195.607 136.115,198.94 130.5,200.5C 126.273,204.962 124.439,210.295 125,216.5C 124.5,217 124,217.5 123.5,218C 265.97,219.637 265.97,220.47 123.5,220.5C 124.093,223.596 123.093,225.929 120.5,227.5C 117.826,226.501 117.159,224.834 118.5,222.5C 117.833,222.167 117.167,221.833 116.5,221.5C 114.701,223.462 112.701,225.129 110.5,226.5C 107.684,226.017 107.017,224.684 108.5,222.5C 104.971,220.577 100.971,219.911 96.5,220.5C 96.5,223.167 96.5,225.833 96.5,228.5C 74.1667,228.5 51.8333,228.5 29.5,228.5C 29.5,225.833 29.5,223.167 29.5,220.5C 17.6968,220.3 17.6968,219.633 29.5,218.5C 29.3336,210.16 29.5003,201.827 30,193.5C 30.4169,192.244 31.2502,191.577 32.5,191.5C 41.3178,190.507 50.3178,190.173 59.5,190.5C 59.762,189.022 59.4287,187.689 58.5,186.5C 53.9198,185.877 50.2532,183.71 47.5,180C 39.8333,179.333 32.1667,179.333 24.5,180C 19.5439,183.694 16.2106,182.527 14.5,176.5C 17.624,169.081 16.7906,162.081 12,155.5C 11.5045,153.527 11.3379,151.527 11.5,149.5C 11.0277,146.098 9.52768,143.098 7,140.5C 5.83333,136.333 7.33333,134.833 11.5,136C 13.1422,138.786 14.6422,141.619 16,144.5C 16.8749,143.127 17.3749,141.627 17.5,140C 16.6137,137.192 16.447,134.359 17,131.5C 20.8178,128.502 22.9845,129.502 23.5,134.5C 22.9049,137.14 22.5715,139.807 22.5,142.5C 23.8333,142.5 25.1667,142.5 26.5,142.5C 26.0634,137.123 28.3967,134.623 33.5,135C 34.5536,136.388 34.7203,137.888 34,139.5C 32.8179,141.344 31.6512,143.177 30.5,145C 30.8333,145.5 31.1667,146 31.5,146.5C 36.6028,144.439 38.2695,145.939 36.5,151C 34,151.885 31.6667,153.052 29.5,154.5C 25.6754,159.973 23.6754,165.973 23.5,172.5C 31.1739,172.666 38.8406,172.5 46.5,172C 48.4519,167.049 51.7852,163.383 56.5,161C 62.2466,159.278 68.0799,158.111 74,157.5C 74.6667,156.167 74.6667,154.833 74,153.5C 71.833,152.512 69.9997,151.179 68.5,149.5C 63.8821,148.781 59.2154,148.281 54.5,148C 51.8358,145.331 50.0024,142.164 49,138.5C 41.7638,141.049 36.7638,138.716 34,131.5C 33.3333,127.833 33.3333,124.167 34,120.5C 34.6667,119.833 35.3333,119.167 36,118.5C 35.6905,108.886 38.5239,100.386 44.5,93C 50.2772,90.6119 55.9439,87.9452 61.5,85C 74.9193,82.7442 88.2526,83.0775 101.5,86C 105.919,88.8762 110.586,91.2095 115.5,93C 118.261,95.8522 120.261,99.1855 121.5,103C 122.786,109.171 123.952,115.338 125,121.5C 126.505,127.032 125.338,131.699 121.5,135.5 Z M 107.5,109.5 C 95.1242,94.6036 80.1242,91.4369 62.5,100C 58.6393,102.696 55.306,105.863 52.5,109.5C 54.3747,105.759 55.5413,101.759 56,97.5C 58.8747,94.537 62.3747,92.7037 66.5,92C 75.5,91.3333 84.5,91.3333 93.5,92C 97.2093,92.6884 100.543,94.1884 103.5,96.5C 104.103,101.136 105.436,105.47 107.5,109.5 Z M 108.5,183.5 C 114.672,186.755 120.339,190.755 125.5,195.5C 124.289,197.422 122.956,199.255 121.5,201C 117.285,202.69 113.118,204.524 109,206.5C 106.213,205.483 103.38,205.316 100.5,206C 99.6634,207.011 99.33,208.178 99.5,209.5C 98.5,209.5 97.5,209.5 96.5,209.5C 96.3354,206.482 96.502,203.482 97,200.5C 99.6832,196.293 101.183,191.627 101.5,186.5C 104.346,186.448 106.68,185.448 108.5,183.5 Z M 106.5,216.5 C 108.983,216.73 109.483,217.397 108,218.5C 106.97,218.164 106.47,217.497 106.5,216.5 Z"/></g>
<g><path style="opacity:1" fill="#eff0f0" d="M 18.5,172.5 C 24.5006,172.741 25.8339,175.241 22.5,180C 16.2016,180.495 14.8682,177.995 18.5,172.5 Z"/></g>
<g><path style="opacity:1" fill="#56584b" d="M 64.5,165.5 C 66.0114,168.544 66.678,171.878 66.5,175.5C 64.8255,172.493 64.1588,169.16 64.5,165.5 Z"/></g>
<g><path style="opacity:1" fill="#f6f7f7" d="M 105.5,165.5 C 107.716,166.203 109.549,167.536 111,169.5C 113.657,178.468 110.49,183.301 101.5,184C 103.765,181.023 105.765,177.856 107.5,174.5C 106.068,171.673 105.401,168.673 105.5,165.5 Z"/></g>
<g><path style="opacity:1" fill="#f5f6f6" d="M 56.5,179.5 C 57.968,180.779 58.6347,182.446 58.5,184.5C 49.8369,183.201 46.6703,178.201 49,169.5C 50.3513,167.981 51.8513,166.648 53.5,165.5C 54.7199,165.887 55.3865,166.72 55.5,168C 52.8403,170.798 52.1737,173.965 53.5,177.5C 54.3569,178.425 55.3569,179.092 56.5,179.5 Z"/></g>
<g><path style="opacity:1" fill="#e3e4e4" d="M 97.5,161.5 C 101.198,160.68 103.531,162.013 104.5,165.5C 102.231,175.808 100.065,186.141 98,196.5C 97.5814,197.672 96.9147,198.672 96,199.5C 95.8138,196.964 95.3138,194.631 94.5,192.5C 93.1938,191.533 92.5271,190.199 92.5,188.5C 93.7828,179.42 95.4495,170.42 97.5,161.5 Z"/></g>
<g><path style="opacity:1" fill="#f0f1f1" d="M 64.5,163.5 C 64.5,164.167 64.5,164.833 64.5,165.5C 64.1588,169.16 64.8255,172.493 66.5,175.5C 67.1667,179.833 67.8333,184.167 68.5,188.5C 68.5,189.5 68.5,190.5 68.5,191.5C 66.1667,191.5 63.8333,191.5 61.5,191.5C 61.7678,189.901 61.4345,188.568 60.5,187.5C 60.5,186.833 60.5,186.167 60.5,185.5C 60.2785,182.933 59.6118,180.599 58.5,178.5C 56.8672,173.301 56.3672,167.967 57,162.5C 58.897,160.984 61.0637,160.317 63.5,160.5C 63.2627,161.791 63.596,162.791 64.5,163.5 Z"/></g>
<g><path style="opacity:1" fill="#f4f5f5" d="M 23.5,162.5 C 21.3888,163.742 19.3888,163.742 17.5,162.5C 19.5,161.167 21.5,161.167 23.5,162.5 Z"/></g>
<g><path style="opacity:1" fill="#b28e0d" d="M 97.5,161.5 C 95.4495,170.42 93.7828,179.42 92.5,188.5C 91.596,189.209 91.2627,190.209 91.5,191.5C 84.1667,191.5 76.8333,191.5 69.5,191.5C 69.7373,190.209 69.404,189.209 68.5,188.5C 67.8333,184.167 67.1667,179.833 66.5,175.5C 66.678,171.878 66.0114,168.544 64.5,165.5C 64.5,164.833 64.5,164.167 64.5,163.5C 64.5,162.167 64.5,160.833 64.5,159.5C 73.5062,159.334 82.5062,159.5 91.5,160C 93.7078,160.191 95.7078,160.691 97.5,161.5 Z"/></g>
<g><path style="opacity:1" fill="#676d6b" d="M 88.5,168.5 C 89.7943,170.048 90.4609,172.048 90.5,174.5C 90.4954,176.696 90.162,178.696 89.5,180.5C 89.7633,176.4 89.4299,172.4 88.5,168.5 Z"/></g>
<g><path style="opacity:1" fill="#fbfcfc" d="M 88.5,168.5 C 89.4299,172.4 89.7633,176.4 89.5,180.5C 83.8936,181.407 78.227,181.74 72.5,181.5C 72.1667,180.5 71.5,179.833 70.5,179.5C 70.3354,176.482 70.502,173.482 71,170.5C 71.5,170 72,169.5 72.5,169C 77.8229,168.501 83.1563,168.334 88.5,168.5 Z"/></g>
<g><path style="opacity:1" fill="#646c6e" d="M 88.5,168.5 C 83.1563,168.334 77.8229,168.501 72.5,169C 72,169.5 71.5,170 71,170.5C 70.502,173.482 70.3354,176.482 70.5,179.5C 69.8401,178.036 69.5068,176.369 69.5,174.5C 69.288,171.989 69.9546,169.822 71.5,168C 77.3487,167.182 83.0154,167.348 88.5,168.5 Z"/></g>
<g><path style="opacity:1" fill="#848a8e" d="M 21.5,153.5 C 20.8505,155.435 20.5172,157.435 20.5,159.5C 21.5,159.5 22.5,159.5 23.5,159.5C 24.625,160.652 24.625,161.652 23.5,162.5C 21.5,161.167 19.5,161.167 17.5,162.5C 16.375,161.652 16.375,160.652 17.5,159.5C 18.325,157.19 19.6583,155.19 21.5,153.5 Z"/></g>
<g><path style="opacity:1" fill="#fbfbfb" d="M 23.5,159.5 C 22.5,159.5 21.5,159.5 20.5,159.5C 20.5172,157.435 20.8505,155.435 21.5,153.5C 23.3146,152.37 25.3146,151.704 27.5,151.5C 28.2264,155.26 26.8931,157.927 23.5,159.5 Z"/></g>
<g><path style="opacity:1" fill="#b48f0b" d="M 69.5,149.5 C 76.3134,148.509 83.3134,148.175 90.5,148.5C 87.5173,151.386 83.8507,152.72 79.5,152.5C 75.7982,152.645 72.4649,151.645 69.5,149.5 Z"/></g>
<g><path style="opacity:1" fill="#6d6120" d="M 68.5,147.5 C 76.1667,147.5 83.8333,147.5 91.5,147.5C 91.5,148.167 91.1667,148.5 90.5,148.5C 83.3134,148.175 76.3134,148.509 69.5,149.5C 69.1667,149.5 68.8333,149.5 68.5,149.5C 68.5,148.833 68.5,148.167 68.5,147.5 Z"/></g>
<g><path style="opacity:1" fill="#e3e4e5" d="M 33.5,146.5 C 37.414,148.109 37.2473,149.775 33,151.5C 30.99,149.604 31.1567,147.937 33.5,146.5 Z"/></g>
<g><path style="opacity:1" fill="#999fa2" d="M 16.5,146.5 C 15.8333,147.833 14.8333,148.833 13.5,149.5C 12.8333,149.5 12.1667,149.5 11.5,149.5C 11.5253,145.716 13.1919,144.716 16.5,146.5 Z"/></g>
<g><path style="opacity:1" fill="#f6f7f7" d="M 21.5,153.5 C 19.6583,155.19 18.325,157.19 17.5,159.5C 13.9088,157.218 12.5755,153.884 13.5,149.5C 14.8333,148.833 15.8333,147.833 16.5,146.5C 19.1357,145.176 21.8023,145.176 24.5,146.5C 24.7365,145.753 25.0698,144.92 25.5,144C 27.2373,143.388 28.2373,144.054 28.5,146C 26.8555,147.032 26.5221,148.199 27.5,149.5C 24.8453,149.975 22.8453,151.309 21.5,153.5 Z"/></g>
<g><path style="opacity:1" fill="#d1d4d5" d="M 18.5,142.5 C 20.1033,142.312 21.4366,142.812 22.5,144C 20.8333,144.667 19.1667,144.667 17.5,144C 18.056,143.617 18.3893,143.117 18.5,142.5 Z"/></g>
<g><path style="opacity:1" fill="#dadddd" d="M 7.5,137.5 C 12.3092,137.77 13.1425,139.437 10,142.5C 8.62829,141.09 7.79495,139.423 7.5,137.5 Z"/></g>
<g><path style="opacity:1" fill="#edeeef" d="M 30.5,135.5 C 33.0628,136.998 33.0628,138.665 30.5,140.5C 29.6919,140.192 29.0253,139.692 28.5,139C 29.305,137.887 29.9717,136.721 30.5,135.5 Z"/></g>
<g><path style="opacity:1" fill="#f2f3f3" d="M 18.5,131.5 C 19.5,131.5 20.5,131.5 21.5,131.5C 21.5,133.167 21.5,134.833 21.5,136.5C 20.5,136.5 19.5,136.5 18.5,136.5C 18.5,134.833 18.5,133.167 18.5,131.5 Z"/></g>
<g><path style="opacity:1" fill="#838a8e" d="M 51.5,116.5 C 52.1647,119.314 52.498,122.314 52.5,125.5C 52.7178,129.722 52.0511,133.722 50.5,137.5C 49.8333,137.5 49.1667,137.5 48.5,137.5C 48.7828,136.711 49.2828,136.044 50,135.5C 50.4995,129.509 50.6662,123.509 50.5,117.5C 51.1667,117.5 51.5,117.167 51.5,116.5 Z"/></g>
<g><path style="opacity:1" fill="#eff0f1" d="M 118.5,114.5 C 119.458,114.953 120.292,115.619 121,116.5C 121.5,122.825 121.666,129.158 121.5,135.5C 120.18,136.942 118.514,137.608 116.5,137.5C 115.868,129.427 116.535,121.76 118.5,114.5 Z"/></g>
<g><path style="opacity:1" fill="#a7adaf" d="M 118.5,114.5 C 116.535,121.76 115.868,129.427 116.5,137.5C 115.508,129.684 115.174,121.684 115.5,113.5C 116.791,113.263 117.791,113.596 118.5,114.5 Z"/></g>
<g><path style="opacity:1" fill="#fdfdfd" d="M 109.5,114.5 C 110.833,114.5 112.167,114.5 113.5,114.5C 113.5,122.167 113.5,129.833 113.5,137.5C 111.61,137.703 110.11,137.037 109,135.5C 108.24,128.45 108.407,121.45 109.5,114.5 Z"/></g>
<g><path style="opacity:1" fill="#f4f4f5" d="M 48.5,114.5 C 49.9063,114.973 50.573,115.973 50.5,117.5C 50.6662,123.509 50.4995,129.509 50,135.5C 49.2828,136.044 48.7828,136.711 48.5,137.5C 47.5,137.5 46.5,137.5 45.5,137.5C 45.5,129.833 45.5,122.167 45.5,114.5C 46.5,114.5 47.5,114.5 48.5,114.5 Z"/></g>
<g><path style="opacity:1" fill="#4d4d32" d="M 40.5,114.5 C 43.1667,113.167 45.8333,113.167 48.5,114.5C 47.5,114.5 46.5,114.5 45.5,114.5C 45.5,122.167 45.5,129.833 45.5,137.5C 44.8333,137.5 44.1667,137.5 43.5,137.5C 43.5,129.833 43.5,122.167 43.5,114.5C 42.5,114.5 41.5,114.5 40.5,114.5 Z"/></g>
<g><path style="opacity:1" fill="#f2f3f3" d="M 40.5,114.5 C 41.5,114.5 42.5,114.5 43.5,114.5C 43.5,122.167 43.5,129.833 43.5,137.5C 41.8561,137.714 40.3561,137.38 39,136.5C 38.3333,129.5 38.3333,122.5 39,115.5C 39.3826,114.944 39.8826,114.611 40.5,114.5 Z"/></g>
<g><path style="opacity:1" fill="#eff0f0" d="M 67.5,104.5 C 67.8333,106.833 69.1667,108.167 71.5,108.5C 72.287,110.104 73.6203,110.771 75.5,110.5C 78.5,111.833 81.5,111.833 84.5,110.5C 88.5895,110.412 91.2562,108.412 92.5,104.5C 93.9063,104.027 94.573,103.027 94.5,101.5C 100.326,103.152 104.493,106.819 107,112.5C 107.333,120.5 107.667,128.5 108,136.5C 108.5,137 109,137.5 109.5,138C 108.355,141.29 106.688,144.29 104.5,147C 100.179,147.499 95.8461,147.666 91.5,147.5C 83.8333,147.5 76.1667,147.5 68.5,147.5C 58.7114,150.367 52.7114,147.034 50.5,137.5C 52.0511,133.722 52.7178,129.722 52.5,125.5C 52.498,122.314 52.1647,119.314 51.5,116.5C 53.225,109.765 57.225,104.765 63.5,101.5C 64.8518,102.524 66.1851,103.524 67.5,104.5 Z"/></g>
<g><path style="opacity:1" fill="#746939" d="M 101.5,116.5 C 102.75,116.577 103.583,117.244 104,118.5C 104.667,124.167 104.667,129.833 104,135.5C 103.626,136.416 103.126,137.25 102.5,138C 86.9945,138.828 71.6611,138.661 56.5,137.5C 71.5037,137.667 86.5037,137.5 101.5,137C 102.816,130.167 102.816,123.334 101.5,116.5 Z"/></g>
<g><path style="opacity:1" fill="#80703c" d="M 56.5,117.5 C 56.5,124.167 56.5,130.833 56.5,137.5C 55.7784,137.082 55.2784,136.416 55,135.5C 54.3333,129.833 54.3333,124.167 55,118.5C 55.3826,117.944 55.8826,117.611 56.5,117.5 Z"/></g>
<g><path style="opacity:1" fill="#b5900b" d="M 101.5,116.5 C 102.816,123.334 102.816,130.167 101.5,137C 86.5037,137.5 71.5037,137.667 56.5,137.5C 56.5,130.833 56.5,124.167 56.5,117.5C 71.4518,116.532 86.4518,116.199 101.5,116.5 Z"/></g>
<g><path style="opacity:1" fill="#4f5858" d="M 76.5,133.5 C 78.4352,134.15 80.4352,134.483 82.5,134.5C 81.9032,135.139 81.0698,135.472 80,135.5C 78.3009,135.613 77.1342,134.947 76.5,133.5 Z"/></g>
<g><path style="opacity:1" fill="#f3f4f4" d="M 76.5,133.5 C 78.6282,132.371 80.9615,132.204 83.5,133C 82.944,133.383 82.6107,133.883 82.5,134.5C 80.4352,134.483 78.4352,134.15 76.5,133.5 Z"/></g>
<g><path style="opacity:1" fill="#767871" d="M 82.5,134.5 C 82.6107,133.883 82.944,133.383 83.5,133C 80.9615,132.204 78.6282,132.371 76.5,133.5C 75.9569,133.44 75.6236,133.107 75.5,132.5C 78.4281,131.516 81.4281,131.183 84.5,131.5C 84.7148,133.179 84.0481,134.179 82.5,134.5 Z"/></g>
<g><path style="opacity:1" fill="#2d3536" d="M 88.5,118.5 C 93.9068,118.125 98.0735,120.125 101,124.5C 101.833,127.667 100.667,128.833 97.5,128C 96.5428,125.372 94.7095,123.872 92,123.5C 88.8263,125.223 85.6596,126.89 82.5,128.5C 82.4118,123.92 84.4118,120.587 88.5,118.5 Z"/></g>
<g><path style="opacity:1" fill="#2e3636" d="M 64.5,118.5 C 69.9483,117.975 74.1149,119.975 77,124.5C 77.8333,127.667 76.6667,128.833 73.5,128C 72.1521,123.999 69.4854,122.666 65.5,124C 63.9782,125.522 62.4782,127.022 61,128.5C 58.6807,127.591 58.0141,125.925 59,123.5C 60.7297,121.598 62.563,119.931 64.5,118.5 Z"/></g>
<g><path style="opacity:1" fill="#4b4a2d" d="M 101.5,116.5 C 86.4518,116.199 71.4518,116.532 56.5,117.5C 56.6107,116.883 56.944,116.383 57.5,116C 72.3391,115.172 87.0058,115.339 101.5,116.5 Z"/></g>
<g><path style="opacity:1" fill="#59563f" d="M 71.5,108.5 C 73.153,108.66 74.4863,109.326 75.5,110.5C 73.6203,110.771 72.287,110.104 71.5,108.5 Z"/></g>
<g><path style="opacity:1" fill="#808583" d="M 92.5,104.5 C 91.2562,108.412 88.5895,110.412 84.5,110.5C 87.4038,108.945 90.0705,106.945 92.5,104.5 Z"/></g>
<g><path style="opacity:1" fill="#b38e0f" d="M 94.5,101.5 C 93.0937,101.973 92.427,102.973 92.5,104.5C 90.0705,106.945 87.4038,108.945 84.5,110.5C 81.5,111.833 78.5,111.833 75.5,110.5C 74.4863,109.326 73.153,108.66 71.5,108.5C 70.5,106.833 69.1667,105.5 67.5,104.5C 67.2969,102.956 66.6302,101.622 65.5,100.5C 74.4295,95.5504 83.5962,95.217 93,99.5C 94.0299,99.8361 94.5299,100.503 94.5,101.5 Z"/></g>
<g><path style="opacity:1" fill="#666c66" d="M 67.5,104.5 C 69.1667,105.5 70.5,106.833 71.5,108.5C 69.1667,108.167 67.8333,106.833 67.5,104.5 Z"/></g>
<g><path style="opacity:1" fill="#6d7474" d="M 94.5,101.5 C 94.573,103.027 93.9063,104.027 92.5,104.5C 92.427,102.973 93.0937,101.973 94.5,101.5 Z"/></g>
<g><path style="opacity:1" fill="#898f92" d="M 73.5,172.5 C 78.1434,172.707 82.81,172.707 87.5,172.5C 87.5,174.167 87.5,175.833 87.5,177.5C 82.5,177.5 77.5,177.5 72.5,177.5C 72.366,175.708 72.6993,174.042 73.5,172.5 Z"/></g>
<g><path style="opacity:1" fill="#9a9fa3" d="M 224.5,171.5 C 222.525,172.646 221.025,174.313 220,176.5C 219.387,174.505 219.887,172.838 221.5,171.5C 222.348,170.375 223.348,170.375 224.5,171.5 Z"/></g>
<g><path style="opacity:1" fill="#9b7f14" d="M 222.5,177.5 C 222.948,175.535 223.948,175.202 225.5,176.5C 224.675,177.386 223.675,177.719 222.5,177.5 Z"/></g>
<g><path style="opacity:1" fill="#9b7f12" d="M 230.5,177.5 C 228.663,177.361 228.33,176.694 229.5,175.5C 230.298,175.957 230.631,176.624 230.5,177.5 Z"/></g>
<g><path style="opacity:1" fill="#d5d8d8" d="M 222.5,177.5 C 225.167,178.833 227.833,178.833 230.5,177.5C 231.376,177.369 232.043,177.702 232.5,178.5C 228.5,179.833 224.5,179.833 220.5,178.5C 220.957,177.702 221.624,177.369 222.5,177.5 Z"/></g>
<g><path style="opacity:1" fill="#5d5d4c" d="M 70.5,179.5 C 71.5,179.833 72.1667,180.5 72.5,181.5C 71.1667,181.5 70.5,180.833 70.5,179.5 Z"/></g>
<g><path style="opacity:1" fill="#2f3839" d="M 89.5,180.5 C 89.3893,181.117 89.056,181.617 88.5,182C 82.9836,182.817 77.6503,182.651 72.5,181.5C 78.227,181.74 83.8936,181.407 89.5,180.5 Z"/></g>
<g><path style="opacity:1" fill="#8b9194" d="M 58.5,178.5 C 59.6118,180.599 60.2785,182.933 60.5,185.5C 59.8333,185.167 59.1667,184.833 58.5,184.5C 58.6347,182.446 57.968,180.779 56.5,179.5C 57.4916,179.672 58.1583,179.338 58.5,178.5 Z"/></g>
<g><path style="opacity:1" fill="#edeeee" d="M 128.5,190.5 C 134.235,189.821 135.902,192.155 133.5,197.5C 129.624,199.446 127.291,198.28 126.5,194C 126.978,192.697 127.645,191.531 128.5,190.5 Z"/></g>
<g><path style="opacity:1" fill="#596163" d="M 60.5,187.5 C 61.4345,188.568 61.7678,189.901 61.5,191.5C 63.8333,191.5 66.1667,191.5 68.5,191.5C 68.5,190.5 68.5,189.5 68.5,188.5C 69.404,189.209 69.7373,190.209 69.5,191.5C 76.8333,191.5 84.1667,191.5 91.5,191.5C 91.2627,190.209 91.596,189.209 92.5,188.5C 92.5271,190.199 93.1938,191.533 94.5,192.5C 73.8333,192.5 53.1667,192.5 32.5,192.5C 32.5,192.167 32.5,191.833 32.5,191.5C 41.8333,191.5 51.1667,191.5 60.5,191.5C 60.5,190.167 60.5,188.833 60.5,187.5 Z"/></g>
<g><path style="opacity:1" fill="#fdfdfd" d="M 32.5,192.5 C 53.1667,192.5 73.8333,192.5 94.5,192.5C 94.5,196.167 94.5,199.833 94.5,203.5C 91.763,204.031 89.0964,204.864 86.5,206C 72.5038,214.553 57.5038,220.553 41.5,224C 38.1832,224.498 34.8499,224.665 31.5,224.5C 31.1722,213.654 31.5056,202.987 32.5,192.5 Z"/></g>
<g><path style="opacity:0.502" fill="#263237" d="M 211.5,168.5 C 213.478,179.451 214.144,190.784 213.5,202.5C 198.833,202.5 184.167,202.5 169.5,202.5C 169.5,192.833 169.5,183.167 169.5,173.5C 182.171,173.667 194.838,173.5 207.5,173C 209.041,171.629 210.375,170.129 211.5,168.5 Z"/></g>
<g><path style="opacity:1" fill="#6f6220" d="M 170.5,200.5 C 184.167,200.5 197.833,200.5 211.5,200.5C 211.5,190.833 211.5,181.167 211.5,171.5C 212.499,180.749 212.832,190.749 212.5,201.5C 198.323,201.829 184.323,201.496 170.5,200.5 Z"/></g>
<g><path style="opacity:1" fill="#a0821a" d="M 211.5,171.5 C 211.5,181.167 211.5,190.833 211.5,200.5C 197.833,200.5 184.167,200.5 170.5,200.5C 170.5,191.833 170.5,183.167 170.5,174.5C 183.171,174.667 195.838,174.5 208.5,174C 209.373,172.955 210.373,172.122 211.5,171.5 Z"/></g>
<g><path style="opacity:1" fill="#6b5f22" d="M 197.5,188.5 C 201.226,188.177 204.893,188.511 208.5,189.5C 206.667,189.833 204.833,190.167 203,190.5C 200.705,190.453 198.871,189.787 197.5,188.5 Z"/></g>
<g><path style="opacity:1" fill="#7c6b1e" d="M 175.5,188.5 C 182.532,188.17 189.532,188.503 196.5,189.5C 193,189.833 189.5,190.167 186,190.5C 182.098,190.488 178.598,189.821 175.5,188.5 Z"/></g>
<g><path style="opacity:1" fill="#dfe1e2" d="M 123.5,208.5 C 123.5,206.5 122.5,205.5 120.5,205.5C 117.991,203.182 118.657,202.349 122.5,203C 124.553,204.678 124.887,206.511 123.5,208.5 Z"/></g>
<g><path style="opacity:1" fill="#f5f6f6" d="M 120.5,205.5 C 121.167,206.833 122.167,207.833 123.5,208.5C 123.5,208.833 123.5,209.167 123.5,209.5C 123.38,210.586 122.713,211.253 121.5,211.5C 118.451,211.239 115.785,210.239 113.5,208.5C 113.082,207.778 112.416,207.278 111.5,207C 114.351,205.711 117.351,205.211 120.5,205.5 Z"/></g>
<g><path style="opacity:1" fill="#6b7377" d="M 120.5,205.5 C 122.5,205.5 123.5,206.5 123.5,208.5C 122.167,207.833 121.167,206.833 120.5,205.5 Z"/></g>
<g><path style="opacity:1" fill="#f4f5f5" d="M 60.5,207.5 C 62.1667,207.5 63.8333,207.5 65.5,207.5C 66.2436,210.95 64.9103,212.616 61.5,212.5C 60.6993,210.958 60.366,209.292 60.5,207.5 Z"/></g>
<g><path style="opacity:1" fill="#dee0e1" d="M 101.5,206.5 C 102.833,206.5 104.167,206.5 105.5,206.5C 105.5,207.833 105.5,209.167 105.5,210.5C 101.56,211.234 100.227,209.901 101.5,206.5 Z"/></g>
<g><path style="opacity:1" fill="#576065" d="M 60.5,207.5 C 60.366,209.292 60.6993,210.958 61.5,212.5C 60.3509,212.209 59.6842,211.376 59.5,210C 59.528,208.93 59.8614,208.097 60.5,207.5 Z"/></g>
<g><path style="opacity:1" fill="#6a7277" d="M 61.5,212.5 C 64.9103,212.616 66.2436,210.95 65.5,207.5C 63.8333,207.5 62.1667,207.5 60.5,207.5C 61.7133,205.324 63.38,204.991 65.5,206.5C 66.7691,208.695 66.7691,210.861 65.5,213C 63.9343,213.765 62.6009,213.598 61.5,212.5 Z"/></g>
<g><path style="opacity:1" fill="#f4f5f5" d="M 112.5,208.5 C 113.234,209.708 113.567,211.041 113.5,212.5C 112.5,212.5 111.5,212.5 110.5,212.5C 109.566,211.432 109.232,210.099 109.5,208.5C 110.5,208.5 111.5,208.5 112.5,208.5 Z"/></g>
<g><path style="opacity:1" fill="#eaebeb" d="M 100.5,216.5 C 99.596,217.209 99.2627,218.209 99.5,219.5C 98.1667,219.5 96.8333,219.5 95.5,219.5C 95.5,216.5 95.5,213.5 95.5,210.5C 98.5641,210.144 101.231,210.977 103.5,213C 102.29,214.039 101.29,215.206 100.5,216.5 Z"/></g>
<g><path style="opacity:1" fill="#f8f9f9" d="M 123.5,213.5 C 123.715,215.179 123.048,216.179 121.5,216.5C 120.086,214.402 120.752,213.402 123.5,213.5 Z"/></g>
<g><path style="opacity:1" fill="#e7e9e9" d="M 113.5,215.5 C 111.577,218.218 110.244,217.884 109.5,214.5C 110.822,214.67 111.989,214.337 113,213.5C 113.464,214.094 113.631,214.761 113.5,215.5 Z"/></g>
<g><path style="opacity:1" fill="#eceeee" d="M 100.5,216.5 C 102.342,214.966 103.675,215.3 104.5,217.5C 102.099,220.413 100.766,220.079 100.5,216.5 Z"/></g>
<g><path style="opacity:1" fill="#677074" d="M 112.5,208.5 C 112.833,208.5 113.167,208.5 113.5,208.5C 115.785,210.239 118.451,211.239 121.5,211.5C 122.713,211.253 123.38,210.586 123.5,209.5C 124.686,210.705 124.686,212.039 123.5,213.5C 120.752,213.402 120.086,214.402 121.5,216.5C 120.833,217.5 120.167,218.5 119.5,219.5C 119.598,216.752 118.598,216.086 116.5,217.5C 116.5,216.833 116.5,216.167 116.5,215.5C 120.171,214.508 120.337,213.175 117,211.5C 114.5,212.158 114,213.491 115.5,215.5C 114.833,215.5 114.167,215.5 113.5,215.5C 113.631,214.761 113.464,214.094 113,213.5C 111.989,214.337 110.822,214.67 109.5,214.5C 109.833,213.833 110.167,213.167 110.5,212.5C 111.5,212.5 112.5,212.5 113.5,212.5C 113.567,211.041 113.234,209.708 112.5,208.5 Z"/></g>
<g><path style="opacity:1" fill="#f1f2f2" d="M 116.5,215.5 C 116.167,215.5 115.833,215.5 115.5,215.5C 114,213.491 114.5,212.158 117,211.5C 120.337,213.175 120.171,214.508 116.5,215.5 Z"/></g>
<g><path style="opacity:1" fill="#e4e6e6" d="M 119.5,219.5 C 116.506,221.066 115.506,220.399 116.5,217.5C 118.598,216.086 119.598,216.752 119.5,219.5 Z"/></g>
<g><path style="opacity:0.878" fill="#243138" d="M 6.5,218.5 C 9.57186,218.183 12.5719,218.516 15.5,219.5C 14,219.833 12.5,220.167 11,220.5C 9.01448,220.431 7.51448,219.765 6.5,218.5 Z"/></g>
<g><path style="opacity:0.878" fill="#243138" d="M 244.5,218.5 C 244.5,219.167 244.5,219.833 244.5,220.5C 240.154,220.666 235.821,220.499 231.5,220C 235.635,218.569 239.968,218.069 244.5,218.5 Z"/></g>
<g><path style="opacity:1" fill="#d9dbdc" d="M 108.5,222.5 C 110.308,219.819 111.641,219.985 112.5,223C 110.825,226.337 109.492,226.171 108.5,222.5 Z"/></g>
<g><path style="opacity:1" fill="#fdfdfd" d="M 119.5,222.5 C 121.465,222.948 121.798,223.948 120.5,225.5C 119.614,224.675 119.281,223.675 119.5,222.5 Z"/></g>
<g><path style="opacity:1" fill="#91989a" d="M 31.5,225.5 C 52.5106,225.167 73.5106,225.5 94.5,226.5C 84,226.833 73.5,227.167 63,227.5C 52.1447,227.499 41.6447,226.832 31.5,225.5 Z"/></g>
</svg>
