<?xml version="1.0" encoding="UTF-8"?>
<svg version="1.1" xmlns="http://www.w3.org/2000/svg" width="297" height="185">
<path d="M0 0 C2.64 0 5.28 0 8 0 C8.33 0.99 8.66 1.98 9 3 C10.65 3 12.3 3 14 3 C17 8.75 17 8.75 17 11 C16.34 11.33 15.68 11.66 15 12 C14.67 12.99 14.34 13.98 14 15 C14.99 15.33 15.98 15.66 17 16 C17 16.33 17 16.66 17 17 C25.25 17.33 33.5 17.66 42 18 C42 14.7 42 11.4 42 8 C41.34 8 40.68 8 40 8 C40 6.02 40 4.04 40 2 C41.65 2 43.3 2 45 2 C45.33 2.66 45.66 3.32 46 4 C47.98 4 49.96 4 52 4 C52 4.66 52 5.32 52 6 C49.69 6 47.38 6 45 6 C45 6.66 45 7.32 45 8 C44.34 8 43.68 8 43 8 C43 11.3 43 14.6 43 18 C44.98 18 46.96 18 49 18 C49 23.94 49 29.88 49 36 C49.99 36 50.98 36 52 36 C52 36.66 52 37.32 52 38 C51.01 38 50.02 38 49 38 C49.33 48.89 49.66 59.78 50 71 C51.32 71.66 52.64 72.32 54 73 C54.33 73.33 54.66 73.66 55 74 C55 73.34 55 72.68 55 72 C55.66 72 56.32 72 57 72 C57 71.01 57 70.02 57 69 C56.34 69 55.68 69 55 69 C55.75 66.5625 55.75 66.5625 57 64 C59.0625 63.3125 59.0625 63.3125 61 63 C61.33 62.34 61.66 61.68 62 61 C63.65 61 65.3 61 67 61 C67.33 61.66 67.66 62.32 68 63 C68.639375 63.103125 69.27875 63.20625 69.9375 63.3125 C70.618125 63.539375 71.29875 63.76625 72 64 C73.25 66.5625 73.25 66.5625 74 69 C73.34 69 72.68 69 72 69 C72 69.99 72 70.98 72 72 C72.66 72 73.32 72 74 72 C73.25 74.4375 73.25 74.4375 72 77 C69.9375 77.6875 69.9375 77.6875 68 78 C67.67 78.66 67.34 79.32 67 80 C65.35 80 63.7 80 62 80 C61.67 79.34 61.34 78.68 61 78 C60.67 78.33 60.34 78.66 60 79 C60.66 79.721875 61.32 80.44375 62 81.1875 C64.17460666 84.24554062 64.57484086 85.35934122 64 89 C63.34 89.99 62.68 90.98 62 92 C62.59167969 92.09796875 63.18335938 92.1959375 63.79296875 92.296875 C68.77027116 93.23874626 72.55343488 94.03122804 76 98 C78.01388113 102.25977622 78.2184241 105.18090962 77 109.75 C74.20579568 114.29058201 71.60573303 116.31221225 66.41015625 117.68359375 C61.0885243 118.74208021 56.51002149 119 51 119 C54.96 151.67 54.96 151.67 59 185 C-26.8 185 -112.6 185 -201 185 C-202.125 176 -202.125 176 -202.0625 171.5 C-202.05347656 170.6440625 -202.04445312 169.788125 -202.03515625 168.90625 C-202.02355469 168.2771875 -202.01195312 167.648125 -202 167 C-202.66 167 -203.32 167 -204 167 C-204.33 165.68 -204.66 164.36 -205 163 C-205.928125 163.04125 -206.85625 163.0825 -207.8125 163.125 C-211 163 -211 163 -214 161 C-215.54187358 156.37437925 -214.79499469 153.10062096 -212.93359375 148.765625 C-211.58364107 146.21257642 -210.66519459 145.1923239 -208 144 C-204.34862856 143.34796939 -200.70919851 143 -197 143 C-199.31783679 140.26747037 -200.92628814 139.58947783 -204.4375 139.0625 C-207.41086291 138.4610367 -209.02776517 137.98215096 -211.625 136.3125 C-213.60736089 132.97852941 -212.84768092 130.67328397 -212 127 C-207.69766864 125.88139385 -205.74419552 125.57683 -201.8125 127.8125 C-198.539384 130.90183141 -197.22643046 134.71279751 -195.76171875 138.890625 C-195.18424911 140.95738661 -195.18424911 140.95738661 -194 142 C-193.49803429 139.04198778 -192.99834165 136.08362295 -192.5 133.125 C-192.35691406 132.28324219 -192.21382812 131.44148437 -192.06640625 130.57421875 C-191.93105469 129.76855469 -191.79570312 128.96289062 -191.65625 128.1328125 C-191.53056641 127.38918457 -191.40488281 126.64555664 -191.27539062 125.87939453 C-190.95167222 123.98676598 -190.95167222 123.98676598 -191 122 C-192.98 122.495 -192.98 122.495 -195 123 C-194.37240135 120.07120629 -193.41377341 117.63904371 -192 115 C-192.495 114.54625 -192.99 114.0925 -193.5 113.625 C-195 112 -195 112 -195 110 C-191.38144425 110.62388892 -190.8290723 111.1709277 -188 114 C-187.67 106.74 -187.34 99.48 -187 92 C-190.3 92 -193.6 92 -197 92 C-198.74506615 90.25493385 -198.23282784 87.80960857 -198.31640625 85.43359375 C-198.35830078 84.30888672 -198.40019531 83.18417969 -198.44335938 82.02539062 C-198.48267578 80.84138672 -198.52199219 79.65738281 -198.5625 78.4375 C-198.60568359 77.24962891 -198.64886719 76.06175781 -198.69335938 74.83789062 C-198.79983546 71.89205216 -198.90184841 68.9461257 -199 66 C-200.65 66 -202.3 66 -204 66 C-204 65.34 -204 64.68 -204 64 C-205.65 64 -207.3 64 -209 64 C-210.49821059 60.62902617 -211 58.79557881 -211 55 C-209.6875 52.25 -209.6875 52.25 -208 50 C-207.01 50 -206.02 50 -205 50 C-204.67 49.34 -204.34 48.68 -204 48 C-202.35 48 -200.7 48 -199 48 C-198.67 48.66 -198.34 49.32 -198 50 C-197.34 50.144375 -196.68 50.28875 -196 50.4375 C-195.01 50.7159375 -195.01 50.7159375 -194 51 C-193.67 51.99 -193.34 52.98 -193 54 C-191.02 54 -189.04 54 -187 54 C-187 42.12 -187 30.24 -187 18 C-128.26 18 -69.52 18 -9 18 C-7.62261497 11.75780532 -7.62261497 11.75780532 -8.625 8.8125 C-9 7 -9 7 -7.875 4.75 C-6 3 -6 3 -3.3125 2.75 C-2.549375 2.8325 -1.78625 2.915 -1 3 C-0.67 2.01 -0.34 1.02 0 0 Z M-0.25 8.6875 C-2.28729536 10.86646986 -2.28729536 10.86646986 -1.875 13.625 C-1.13532087 16.14405125 -1.13532087 16.14405125 1 18 C3.84602594 18.36487512 5.3864306 18.40199375 7.8125 16.8125 C9.44052002 14.32762734 9.50975499 12.91288568 9 10 C7.26961928 8.09798258 7.26961928 8.09798258 5 7 C1.93125 6.7 1.93125 6.7 -0.25 8.6875 Z M-204 54 C-204.67958603 56.39719432 -204.67958603 56.39719432 -205 59 C-204.34 59.66 -203.68 60.32 -203 61 C-200.89179203 60.6814823 -200.89179203 60.6814823 -199 60 C-198.61781233 58.34385343 -198.28604898 56.67542976 -198 55 C-199.06645115 53.70366379 -199.06645115 53.70366379 -201.5625 53.9375 C-202.366875 53.958125 -203.17125 53.97875 -204 54 Z M63 67 C62.34 67.66 61.68 68.32 61 69 C61.3185177 71.10820797 61.3185177 71.10820797 62 73 C65.04913228 74.01111093 65.04913228 74.01111093 68 73 C67.67 71.02 67.34 69.04 67 67 C65.68 67 64.36 67 63 67 Z M-189.48828125 136.20703125 C-191.30524269 138.36203203 -191.66896326 139.93526656 -192.1875 142.6875 C-192.42533203 143.89986328 -192.42533203 143.89986328 -192.66796875 145.13671875 C-192.77753906 145.75160156 -192.88710937 146.36648437 -193 147 C-189.99740483 147.33218192 -189.99740483 147.33218192 -188.3125 145.5 C-186.41125586 141.8785826 -186.79687891 139.06242173 -187 135 C-188.18992447 134.89501639 -188.18992447 134.89501639 -189.48828125 136.20703125 Z M-189 147 C-190.59789351 151.95346987 -189.28306814 156.13282415 -188 161 C-187.67 161 -187.34 161 -187 161 C-187 156.38 -187 151.76 -187 147 C-187.66 147 -188.32 147 -189 147 Z M-199 148 C-201.02055843 152.39251833 -202.40895235 156.15340923 -203 161 C-200.69 161 -198.38 161 -196 161 C-195.67 156.71 -195.34 152.42 -195 148 C-196.32 148 -197.64 148 -199 148 Z M49 151 C49 154.3 49 157.6 49 161 C47.02 161 45.04 161 43 161 C43.33 162.32 43.66 163.64 44 165 C43.01 165.495 43.01 165.495 42 166 C45.3 166 48.6 166 52 166 C51.34 161.05 50.68 156.1 50 151 C49.67 151 49.34 151 49 151 Z M-192 155 C-192 156.98 -192 158.96 -192 161 C-191.34 161 -190.68 161 -190 161 C-190.33 159.02 -190.66 157.04 -191 155 C-191.33 155 -191.66 155 -192 155 Z M-194 157 C-193 159 -193 159 -193 159 Z M-182 161 C-182 162.98 -182 164.96 -182 167 C-182.66 167 -183.32 167 -184 167 C-184.33 172.61 -184.66 178.22 -185 184 C-117.68 184 -50.36 184 19 184 C19.33 181.36 19.66 178.72 20 176 C18.68 176.33 17.36 176.66 16 177 C17.09797622 172.6080951 18.21682381 169.54222425 21 166 C21 165.01 21 164.02 21 163 C20.34 163 19.68 163 19 163 C19 162.34 19 161.68 19 161 C2.83 161 -13.34 161 -30 161 C-30 163.31 -30 165.62 -30 168 C-74.88 168 -119.76 168 -166 168 C-166 165.69 -166 163.38 -166 161 C-171.28 161 -176.56 161 -182 161 Z M24 174 C23.67 177.3 23.34 180.6 23 184 C33.56 184 44.12 184 55 184 C54.32965617 175.74083493 54.32965617 175.74083493 52 168 C36.80454579 166.89529645 36.80454579 166.89529645 24 174 Z " fill="#FAFAFA" transform="translate(217,0)"/>
<path d="M0 0 C2.64 0 5.28 0 8 0 C8.33 0.99 8.66 1.98 9 3 C10.65 3 12.3 3 14 3 C17 8.75 17 8.75 17 11 C16.34 11.33 15.68 11.66 15 12 C14.67 12.99 14.34 13.98 14 15 C14.99 15.33 15.98 15.66 17 16 C17 16.33 17 16.66 17 17 C25.25 17.33 33.5 17.66 42 18 C42 14.7 42 11.4 42 8 C41.34 8 40.68 8 40 8 C40 6.02 40 4.04 40 2 C41.65 2 43.3 2 45 2 C45.33 2.66 45.66 3.32 46 4 C47.98 4 49.96 4 52 4 C52 4.66 52 5.32 52 6 C49.69 6 47.38 6 45 6 C45 6.66 45 7.32 45 8 C44.34 8 43.68 8 43 8 C43 11.3 43 14.6 43 18 C44.98 18 46.96 18 49 18 C49 23.94 49 29.88 49 36 C49.99 36 50.98 36 52 36 C52 36.66 52 37.32 52 38 C51.01 38 50.02 38 49 38 C49 39.32 49 40.64 49 42 C-28.55 42 -106.1 42 -186 42 C-186 46.29 -186 50.58 -186 55 C-186.33 55 -186.66 55 -187 55 C-187 42.79 -187 30.58 -187 18 C-128.26 18 -69.52 18 -9 18 C-7.62261497 11.75780532 -7.62261497 11.75780532 -8.625 8.8125 C-9 7 -9 7 -7.875 4.75 C-6 3 -6 3 -3.3125 2.75 C-2.549375 2.8325 -1.78625 2.915 -1 3 C-0.67 2.01 -0.34 1.02 0 0 Z M-0.25 8.6875 C-2.28729536 10.86646986 -2.28729536 10.86646986 -1.875 13.625 C-1.13532087 16.14405125 -1.13532087 16.14405125 1 18 C3.84602594 18.36487512 5.3864306 18.40199375 7.8125 16.8125 C9.44052002 14.32762734 9.50975499 12.91288568 9 10 C7.26961928 8.09798258 7.26961928 8.09798258 5 7 C1.93125 6.7 1.93125 6.7 -0.25 8.6875 Z " fill="#BB950A" transform="translate(217,0)"/>
<path d="M0 0 C4.12478147 1.87490067 5.63026265 3.39917681 8 7.25 C9.17202001 11.64507503 9.20183822 14.95495629 7 19 C3.45500053 22.43776639 0.41776173 23.72541911 -4.375 24.75 C-5.45523437 24.99234375 -6.53546875 25.2346875 -7.6484375 25.484375 C-11 26 -11 26 -18 26 C-14.04 58.67 -14.04 58.67 -10 92 C-95.8 92 -181.6 92 -270 92 C-271.125 83 -271.125 83 -271.0625 78.5 C-271.05347656 77.6440625 -271.04445313 76.788125 -271.03515625 75.90625 C-271.02355469 75.2771875 -271.01195312 74.648125 -271 74 C-271.66 74 -272.32 74 -273 74 C-273.33 72.68 -273.66 71.36 -274 70 C-274.928125 70.04125 -275.85625 70.0825 -276.8125 70.125 C-280 70 -280 70 -283 68 C-284.54187358 63.37437925 -283.79499469 60.10062096 -281.93359375 55.765625 C-280.58364107 53.21257642 -279.66519459 52.1923239 -277 51 C-273.34862856 50.34796939 -269.70919851 50 -266 50 C-268.31783679 47.26747037 -269.92628814 46.58947783 -273.4375 46.0625 C-276.41086291 45.4610367 -278.02776517 44.98215096 -280.625 43.3125 C-282.60736089 39.97852941 -281.84768092 37.67328397 -281 34 C-276.69766864 32.88139385 -274.74419552 32.57683 -270.8125 34.8125 C-267.539384 37.90183141 -266.22643046 41.71279751 -264.76171875 45.890625 C-264.18424911 47.95738661 -264.18424911 47.95738661 -263 49 C-262.76216797 47.19015625 -262.76216797 47.19015625 -262.51953125 45.34375 C-261.13584717 35.58669 -260.03983058 28.36498094 -253.0625 20.9375 C-250.07788788 19.58085813 -248.08934261 20.10752324 -245 21 C-243.56695936 23.86608129 -243.69355845 25.81300783 -244 29 C-246.35429763 33.61442336 -249.16569108 35.9779691 -253.32421875 38.80078125 C-258.3436109 42.39274719 -259.60495952 46.4037947 -260.703125 52.20703125 C-260.80109375 52.79871094 -260.8990625 53.39039063 -261 54 C-260.52949219 53.59007812 -260.05898438 53.18015625 -259.57421875 52.7578125 C-258.95160156 52.21898437 -258.32898438 51.68015625 -257.6875 51.125 C-257.07261719 50.59132812 -256.45773437 50.05765625 -255.82421875 49.5078125 C-253.21535889 47.35145296 -251.54082078 46.05878487 -248.125 45.6875 C-244.61771362 46.03822864 -242.80937758 46.9130338 -240 49 C-238.60064987 51.79870027 -238.74734595 53.90498792 -239 57 C-240.125 58.9375 -240.125 58.9375 -242 60 C-246.98096157 59.89402209 -248.61757631 58.38242369 -252 55 C-253.98 54.67 -255.96 54.34 -258 54 C-257.505 60.93 -257.505 60.93 -257 68 C-255.02 68 -253.04 68 -251 68 C-251 69.98 -251 71.96 -251 74 C-251.66 74 -252.32 74 -253 74 C-252.98839844 74.72445312 -252.97679687 75.44890625 -252.96484375 76.1953125 C-252.95582031 77.16210938 -252.94679688 78.12890625 -252.9375 79.125 C-252.92589844 80.07632813 -252.91429687 81.02765625 -252.90234375 82.0078125 C-253 85 -253 85 -254 91 C-186.68 91 -119.36 91 -50 91 C-49.67 88.36 -49.34 85.72 -49 83 C-50.32 83.33 -51.64 83.66 -53 84 C-53.35680552 80.1643407 -53.35794008 78.49649753 -51.0625 75.3125 C-50.381875 74.549375 -49.70125 73.78625 -49 73 C-48.67 72.01 -48.34 71.02 -48 70 C-48.66 70 -49.32 70 -50 70 C-50.04511719 69.10152344 -50.09023437 68.20304687 -50.13671875 67.27734375 C-51.00190477 61.25134584 -54.1322521 55.95147541 -56.8125 50.5625 C-57.34681641 49.46873047 -57.88113281 48.37496094 -58.43164062 47.24804688 C-61.25395927 41.48190756 -64.12062685 35.73783076 -67 30 C-68.65 30.33 -70.3 30.66 -72 31 C-72.33 30.01 -72.66 29.02 -73 28 C-72.2575 27.13375 -72.2575 27.13375 -71.5 26.25 C-69.29909236 22.94863853 -70.32434769 20.86964504 -71 17 C-71.90611469 7.28366248 -71.90611469 7.28366248 -68.75 2.8125 C-66 1 -66 1 -62 1 C-61.67 4.3 -61.34 7.6 -61 11 C-56.71 11 -52.42 11 -48 11 C-47.67 12.32 -47.34 13.64 -47 15 C-46.68417969 14.35546875 -46.36835938 13.7109375 -46.04296875 13.046875 C-42.89379665 9.89168154 -39.60983517 10.3275565 -35.3125 10.25 C-34.11657227 10.20552734 -34.11657227 10.20552734 -32.89648438 10.16015625 C-30.93153251 10.08955918 -28.96576023 10.04250292 -27 10 C-26.76925781 9.37222656 -26.53851563 8.74445313 -26.30078125 8.09765625 C-24.58289558 5.32737215 -23.31028824 5.18191279 -20.1875 4.4375 C-17.13866345 3.64593331 -15.12960515 3.08748348 -12.5 1.3125 C-8.45779491 -0.80965767 -4.45987873 -0.62895726 0 0 Z M-268 55 C-270.02055843 59.39251833 -271.40895235 63.15340923 -272 68 C-269.69 68 -267.38 68 -265 68 C-264.67 63.71 -264.34 59.42 -264 55 C-265.32 55 -266.64 55 -268 55 Z M-20 58 C-20 61.3 -20 64.6 -20 68 C-21.98 68 -23.96 68 -26 68 C-25.67 69.32 -25.34 70.64 -25 72 C-25.99 72.495 -25.99 72.495 -27 73 C-23.7 73 -20.4 73 -17 73 C-17.66 68.05 -18.32 63.1 -19 58 C-19.33 58 -19.66 58 -20 58 Z M-261 62 C-261 63.98 -261 65.96 -261 68 C-260.34 68 -259.68 68 -259 68 C-259.33 66.02 -259.66 64.04 -260 62 C-260.33 62 -260.66 62 -261 62 Z M-263 64 C-262 66 -262 66 -262 66 Z M-45 81 C-45.33 84.3 -45.66 87.6 -46 91 C-35.44 91 -24.88 91 -14 91 C-14.67034383 82.74083493 -14.67034383 82.74083493 -17 75 C-32.19545421 73.89529645 -32.19545421 73.89529645 -45 81 Z " fill="#445963" transform="translate(286,93)"/>
<path d="M0 0 C2.64 0.33 5.28 0.66 8 1 C8 0.67 8 0.34 8 0 C23.10724691 -0.02332969 38.21449243 -0.04097952 53.3217535 -0.05181217 C60.33584634 -0.05697498 67.349928 -0.06401739 74.36401367 -0.07543945 C81.12668068 -0.08644688 87.88933364 -0.09227619 94.65200996 -0.09487724 C97.2385228 -0.09673203 99.82503497 -0.10035367 102.41154289 -0.10573006 C106.02038855 -0.11293651 109.62918547 -0.11399111 113.23803711 -0.11352539 C114.3191275 -0.11712067 115.4002179 -0.12071594 116.5140686 -0.12442017 C117.98019341 -0.12235817 117.98019341 -0.12235817 119.47593689 -0.12025452 C120.33043899 -0.12117631 121.18494108 -0.1220981 122.06533718 -0.12304783 C124 0 124 0 125 1 C127.64 1 130.28 1 133 1 C133 8.59 133 16.18 133 24 C116.84967769 24.02254711 100.69936874 24.04097922 84.54903507 24.05181217 C77.05066936 24.05697511 69.55231409 24.06401776 62.05395508 24.07543945 C55.52069496 24.08538637 48.98744241 24.09185344 42.45417494 24.09408849 C38.99278193 24.09539559 35.53141058 24.09848136 32.07002449 24.10573006 C28.21212473 24.11374407 24.35424643 24.11399113 20.49633789 24.11352539 C18.76249344 24.1189183 18.76249344 24.1189183 16.99362183 24.12442017 C15.94889206 24.1230455 14.90416229 24.12167084 13.82777405 24.12025452 C12.45752878 24.12163721 12.45752878 24.12163721 11.05960178 24.12304783 C9 24 9 24 8 23 C4.04 23.495 4.04 23.495 0 24 C0 16.08 0 8.16 0 0 Z " fill="#FEFDFC" transform="translate(53,143)"/>
<path d="M0 0 C4.12478147 1.87490067 5.63026265 3.39917681 8 7.25 C9.17202001 11.64507503 9.20183822 14.95495629 7 19 C-4.11722422 29.42837728 -22.97902474 26.30613483 -37 26 C-37.32574305 33.85327289 -37.24361986 40.35202072 -34 47.5625 C-31 54.59628378 -31 54.59628378 -31 59 C-35.95 61.31 -40.9 63.62 -46 66 C-45.505 66.99 -45.505 66.99 -45 68 C-41.97065509 68.65772428 -41.97065509 68.65772428 -39 69 C-42.49087093 73.0042343 -44.64951939 74.62671065 -50 75 C-49.34 73.35 -48.68 71.7 -48 70 C-48.66 70 -49.32 70 -50 70 C-50.04511719 69.10152344 -50.09023437 68.20304687 -50.13671875 67.27734375 C-51.00190477 61.25134584 -54.1322521 55.95147541 -56.8125 50.5625 C-57.34681641 49.46873047 -57.88113281 48.37496094 -58.43164062 47.24804688 C-61.25395927 41.48190756 -64.12062685 35.73783076 -67 30 C-68.65 30.33 -70.3 30.66 -72 31 C-72.33 30.01 -72.66 29.02 -73 28 C-72.505 27.4225 -72.01 26.845 -71.5 26.25 C-69.29909236 22.94863853 -70.32434769 20.86964504 -71 17 C-71.90611469 7.28366248 -71.90611469 7.28366248 -68.75 2.8125 C-66 1 -66 1 -62 1 C-61.67 4.3 -61.34 7.6 -61 11 C-56.71 11 -52.42 11 -48 11 C-47.67 12.32 -47.34 13.64 -47 15 C-46.68417969 14.35546875 -46.36835938 13.7109375 -46.04296875 13.046875 C-42.89379665 9.89168154 -39.60983517 10.3275565 -35.3125 10.25 C-34.51521484 10.22035156 -33.71792969 10.19070312 -32.89648438 10.16015625 C-30.93153251 10.08955918 -28.96576023 10.04250292 -27 10 C-26.76925781 9.37222656 -26.53851563 8.74445313 -26.30078125 8.09765625 C-24.58289558 5.32737215 -23.31028824 5.18191279 -20.1875 4.4375 C-17.13866345 3.64593331 -15.12960515 3.08748348 -12.5 1.3125 C-8.45779491 -0.80965767 -4.45987873 -0.62895726 0 0 Z " fill="#38484F" transform="translate(286,93)"/>
<path d="M0 0 C3.56154311 0.49465877 6.74942908 1.46500818 10 3 C11.60725635 6.21451269 11.05748185 9.43612536 11 13 C10.34 13 9.68 13 9 13 C10.38059024 16.38006576 11.63222761 17.69128723 14.87890625 19.32421875 C15.63494141 19.71287109 16.39097656 20.10152344 17.16992188 20.50195312 C17.95947266 20.89318359 18.74902344 21.28441406 19.5625 21.6875 C21.12694989 22.48179828 22.69078571 23.27730759 24.25390625 24.07421875 C25.29526733 24.59375122 25.29526733 24.59375122 26.35766602 25.1237793 C28 26 28 26 29 27 C29 26.34 29 25.68 29 25 C29.66 25 30.32 25 31 25 C31 24.01 31 23.02 31 22 C30.34 22 29.68 22 29 22 C29.75 19.5625 29.75 19.5625 31 17 C33.0625 16.3125 33.0625 16.3125 35 16 C35.33 15.34 35.66 14.68 36 14 C37.65 14 39.3 14 41 14 C41.495 14.99 41.495 14.99 42 16 C42.639375 16.103125 43.27875 16.20625 43.9375 16.3125 C44.618125 16.539375 45.29875 16.76625 46 17 C47.25 19.5625 47.25 19.5625 48 22 C47.34 22 46.68 22 46 22 C46 22.99 46 23.98 46 25 C46.66 25 47.32 25 48 25 C47.25 27.4375 47.25 27.4375 46 30 C43.9375 30.6875 43.9375 30.6875 42 31 C41.67 31.66 41.34 32.32 41 33 C39.35 33 37.7 33 36 33 C35.67 32.34 35.34 31.68 35 31 C34.505 31.495 34.505 31.495 34 32 C34.99 33.0828125 34.99 33.0828125 36 34.1875 C38 37 38 37 38.5625 39.5 C37.47285444 44.34286914 33.72449972 46.52628864 29.75 49.125 C26.26150883 51.03060751 22.63061756 52.19117799 18.8203125 53.2890625 C16.7985173 53.8442612 16.7985173 53.8442612 16 56 C17.98 56 19.96 56 22 56 C22 56.33 22 56.66 22 57 C21.32420898 57.0093457 20.64841797 57.01869141 19.95214844 57.02832031 C16.8840289 57.08207301 13.81742613 57.16570992 10.75 57.25 C9.68652344 57.26417969 8.62304688 57.27835938 7.52734375 57.29296875 C6.50253906 57.32519531 5.47773438 57.35742188 4.421875 57.390625 C3.47924805 57.41157227 2.53662109 57.43251953 1.56542969 57.45410156 C-1.66822831 58.14219247 -2.89753013 59.516836 -5 62 C-5.495 60.02 -5.495 60.02 -6 58 C-9.96 57.67 -13.92 57.34 -18 57 C-19.47313506 50.46296317 -20.21594368 44.69425413 -20 38 C-18.02 38 -16.04 38 -14 38 C-13.773125 37.29875 -13.54625 36.5975 -13.3125 35.875 C-9.87580172 28.34699425 -3.4190302 23.91086971 3 19 C2.505 18.54625 2.01 18.0925 1.5 17.625 C0 16 0 16 0 14 C-15.18 14 -30.36 14 -46 14 C-46 13.34 -46 12.68 -46 12 C-47.65 12 -49.3 12 -51 12 C-51 9.03 -51 6.06 -51 3 C-48.03 3 -45.06 3 -42 3 C-42 4.65 -42 6.3 -42 8 C-28.14 8 -14.28 8 0 8 C-0.495 4.535 -0.495 4.535 -1 1 C-0.67 0.67 -0.34 0.34 0 0 Z M37 20 C36.34 20.66 35.68 21.32 35 22 C35.3185177 24.10820797 35.3185177 24.10820797 36 26 C39.04913228 27.01111093 39.04913228 27.01111093 42 26 C41.67 24.02 41.34 22.04 41 20 C39.68 20 38.36 20 37 20 Z " fill="#C8C7C7" transform="translate(243,47)"/>
<path d="M0 0 C6.27 0 12.54 0 19 0 C21.64 21.78 24.28 43.56 27 66 C13.8 66 0.6 66 -13 66 C-12.67 63.03 -12.34 60.06 -12 57 C-13.98 57.495 -13.98 57.495 -16 58 C-16.3125 55.25 -16.3125 55.25 -16 52 C-13.0014061 48.91573199 -9.9703313 47.50228752 -6 46 C-5.34 45.34 -4.68 44.68 -4 44 C-7.465 42.515 -7.465 42.515 -11 41 C-7.9703348 38.55185821 -4.92450401 36.90547147 -1.375 35.3125 C-0.41335937 34.87550781 0.54828125 34.43851563 1.5390625 33.98828125 C4 33 4 33 6 33 C5.21021997 30.60353007 4.41824215 28.20782392 3.625 25.8125 C3.40328125 25.13896484 3.1815625 24.46542969 2.953125 23.77148438 C2.01044734 20.9295885 1.0724928 18.15643183 -0.1875 15.4375 C-1.83439384 10.49681848 -0.51310957 5.07978475 0 0 Z M17 32 C17 35.3 17 38.6 17 42 C15.02 42 13.04 42 11 42 C11.33 43.32 11.66 44.64 12 46 C11.01 46.495 11.01 46.495 10 47 C13.3 47 16.6 47 20 47 C19.34 42.05 18.68 37.1 18 32 C17.67 32 17.34 32 17 32 Z M-8 55 C-8.33 58.3 -8.66 61.6 -9 65 C1.56 65 12.12 65 23 65 C22.32965617 56.74083493 22.32965617 56.74083493 20 49 C4.80454579 47.89529645 4.80454579 47.89529645 -8 55 Z " fill="#BB940A" transform="translate(249,119)"/>
<path d="M0 0 C14.52 0 29.04 0 44 0 C44.33 9.24 44.66 18.48 45 28 C30.15 28 15.3 28 0 28 C0 18.76 0 9.52 0 0 Z " fill="#BA9307" transform="translate(137,100)"/>
<path d="M0 0 C3.56154311 0.49465877 6.74942908 1.46500818 10 3 C11.60725635 6.21451269 11.05748185 9.43612536 11 13 C10.34 13 9.68 13 9 13 C10.38478173 16.39616154 11.65962562 17.70786972 14.9140625 19.359375 C15.67460937 19.75253906 16.43515625 20.14570312 17.21875 20.55078125 C18.0128125 20.94652344 18.806875 21.34226562 19.625 21.75 C20.42679687 22.16121094 21.22859375 22.57242188 22.0546875 22.99609375 C24.03137743 24.00797074 26.01293783 25.00869016 28 26 C26.63760782 28.84223197 25.44766831 30.96027641 23 33 C22.34 33 21.68 33 21 33 C21.495 35.97 21.495 35.97 22 39 C18.2440786 42.42931954 13.76533255 43.56429083 9 45 C8.505 41.535 8.505 41.535 8 38 C5.36 38 2.72 38 0 38 C-0.33 37.01 -0.66 36.02 -1 35 C-1.763125 34.896875 -2.52625 34.79375 -3.3125 34.6875 C-6.17059424 33.95635961 -7.15742885 33.23048087 -9 31 C-7.47940093 27.11985064 -5.13921469 25.26093438 -1.875 22.75 C-0.96492188 22.04359375 -0.05484375 21.3371875 0.8828125 20.609375 C1.58148438 20.07828125 2.28015625 19.5471875 3 19 C2.505 18.54625 2.01 18.0925 1.5 17.625 C0 16 0 16 0 14 C-15.18 14 -30.36 14 -46 14 C-46 13.34 -46 12.68 -46 12 C-47.65 12 -49.3 12 -51 12 C-51 9.03 -51 6.06 -51 3 C-48.03 3 -45.06 3 -42 3 C-42 4.65 -42 6.3 -42 8 C-28.14 8 -14.28 8 0 8 C-0.495 4.535 -0.495 4.535 -1 1 C-0.67 0.67 -0.34 0.34 0 0 Z " fill="#BA940E" transform="translate(243,47)"/>
<path d="M0 0 C1.65 0 3.3 0 5 0 C5.33 0.66 5.66 1.32 6 2 C7.98 2 9.96 2 12 2 C12 2.66 12 3.32 12 4 C9.69 4 7.38 4 5 4 C5 4.66 5 5.32 5 6 C4.34 6 3.68 6 3 6 C3 9.3 3 12.6 3 16 C4.98 16 6.96 16 9 16 C9 17.32 9 18.64 9 20 C-65.25 20 -139.5 20 -216 20 C-216 19.34 -216 18.68 -216 18 C-216.66 18 -217.32 18 -218 18 C-218.33 18.66 -218.66 19.32 -219 20 C-219 19.34 -219 18.68 -219 18 C-219.66 18 -220.32 18 -221 18 C-221 18.66 -221 19.32 -221 20 C-221.66 20 -222.32 20 -223 20 C-223 19.34 -223 18.68 -223 18 C-223.66 18 -224.32 18 -225 18 C-225.33 18.66 -225.66 19.32 -226 20 C-226 19.01 -226 18.02 -226 17 C-113.14 16.505 -113.14 16.505 2 16 C2 12.7 2 9.4 2 6 C1.34 6 0.68 6 0 6 C0 4.02 0 2.04 0 0 Z " fill="#3A4A52" transform="translate(257,2)"/>
<path d="M0 0 C2.64 0 5.28 0 8 0 C8.33 0.99 8.66 1.98 9 3 C10.65 3 12.3 3 14 3 C17 8.75 17 8.75 17 11 C16.34 11.33 15.68 11.66 15 12 C14.67 12.99 14.34 13.98 14 15 C14.99 15.33 15.98 15.66 17 16 C16.01 17.485 16.01 17.485 15 19 C12.30061805 19.29435869 9.8304133 19.39117691 7.12875366 19.36076355 C6.30625079 19.36332682 5.48374791 19.3658901 4.63632071 19.36853105 C1.86461037 19.37349479 -0.90656204 19.35693364 -3.67822266 19.34057617 C-5.65878791 19.33973046 -7.63935411 19.34020395 -9.61991882 19.34190369 C-15.01020607 19.34276724 -20.40029455 19.32508332 -25.79053545 19.30418181 C-31.41864556 19.28547488 -37.04675983 19.28366931 -42.67489624 19.28010559 C-53.33862152 19.27076749 -64.00225493 19.24612988 -74.66593969 19.21605712 C-86.80358986 19.18256795 -98.94124434 19.16604091 -111.07892919 19.15097082 C-136.05267046 19.11958183 -161.02633009 19.06678712 -186 19 C-185.01 19.33 -184.02 19.66 -183 20 C-183 20.66 -183 21.32 -183 22 C-182.34 22 -181.68 22 -181 22 C-181 21.34 -181 20.68 -181 20 C-179.35 20 -177.7 20 -176 20 C-176 20.66 -176 21.32 -176 22 C-102.08 22 -28.16 22 48 22 C48 22.33 48 22.66 48 23 C-29.22 23 -106.44 23 -186 23 C-186 33.56 -186 44.12 -186 55 C-186.33 55 -186.66 55 -187 55 C-187 42.79 -187 30.58 -187 18 C-128.26 18 -69.52 18 -9 18 C-7.62261497 11.75780532 -7.62261497 11.75780532 -8.625 8.8125 C-9 7 -9 7 -7.875 4.75 C-6 3 -6 3 -3.3125 2.75 C-2.549375 2.8325 -1.78625 2.915 -1 3 C-0.67 2.01 -0.34 1.02 0 0 Z M-0.25 8.6875 C-2.28729536 10.86646986 -2.28729536 10.86646986 -1.875 13.625 C-1.13532087 16.14405125 -1.13532087 16.14405125 1 18 C3.84602594 18.36487512 5.3864306 18.40199375 7.8125 16.8125 C9.44052002 14.32762734 9.50975499 12.91288568 9 10 C7.26961928 8.09798258 7.26961928 8.09798258 5 7 C1.93125 6.7 1.93125 6.7 -0.25 8.6875 Z " fill="#84805D" transform="translate(217,0)"/>
<path d="M0 0 C1.65 0 3.3 0 5 0 C5.495 0.99 5.495 0.99 6 2 C6.639375 2.103125 7.27875 2.20625 7.9375 2.3125 C8.618125 2.539375 9.29875 2.76625 10 3 C11.25 5.5625 11.25 5.5625 12 8 C11.34 8 10.68 8 10 8 C10 8.99 10 9.98 10 11 C10.66 11 11.32 11 12 11 C11.25 13.4375 11.25 13.4375 10 16 C7.9375 16.6875 7.9375 16.6875 6 17 C5.67 17.66 5.34 18.32 5 19 C3.35 19 1.7 19 0 19 C-0.33 18.34 -0.66 17.68 -1 17 C-1.33 17.33 -1.66 17.66 -2 18 C-1.01 19.0828125 -1.01 19.0828125 0 20.1875 C2 23 2 23 2.5625 25.5 C1.47285444 30.34286914 -2.27550028 32.52628864 -6.25 35.125 C-9.7114061 37.01165651 -13.30713755 38.1845325 -17.08203125 39.2890625 C-19.20095204 39.92277932 -19.20095204 39.92277932 -21 42 C-22.65 42 -24.3 42 -26 42 C-26.33 38.37 -26.66 34.74 -27 31 C-23.1273638 28.53559514 -19.23039958 26.74192924 -15 25 C-15.12375 24.113125 -15.2475 23.22625 -15.375 22.3125 C-14.9692253 18.72815679 -14.75908027 18.34100374 -12.1875 16.125 C-9 14 -9 14 -6 14 C-6.33 13.01 -6.66 12.02 -7 11 C-6.34 11 -5.68 11 -5 11 C-5 10.01 -5 9.02 -5 8 C-5.66 8 -6.32 8 -7 8 C-6.25 5.5625 -6.25 5.5625 -5 3 C-2.9375 2.3125 -2.9375 2.3125 -1 2 C-0.67 1.34 -0.34 0.68 0 0 Z M1 6 C0.34 6.66 -0.32 7.32 -1 8 C-0.6814823 10.10820797 -0.6814823 10.10820797 0 12 C3.04913228 13.01111093 3.04913228 13.01111093 6 12 C5.67 10.02 5.34 8.04 5 6 C3.68 6 2.36 6 1 6 Z " fill="#F3A89E" transform="translate(279,61)"/>
<path d="M0 0 C4.62 0 9.24 0 14 0 C15.46484375 11.71875 15.46484375 11.71875 15.73022461 13.87695312 C15.98727132 15.89982934 16.27412173 17.91885214 16.5625 19.9375 C17.127928 24.46092402 17.11069185 28.94772343 17.0625 33.5 C17.05798828 34.32242188 17.05347656 35.14484375 17.04882812 35.9921875 C17.03718489 37.99482396 17.01925556 39.99742227 17 42 C13.62109375 42.125 13.62109375 42.125 10 42 C8.0625 40 8.0625 40 7 38 C6.46890625 38.20496094 5.9378125 38.40992188 5.390625 38.62109375 C4.68421875 38.89050781 3.9778125 39.15992188 3.25 39.4375 C2.55390625 39.70433594 1.8578125 39.97117188 1.140625 40.24609375 C-2.47613666 41.51988025 -5.10280536 42 -9 42 C-9.66 41.34 -10.32 40.68 -11 40 C-8.54379149 38.82866942 -6.08525083 37.66278278 -3.625 36.5 C-2.92632812 36.16613281 -2.22765625 35.83226562 -1.5078125 35.48828125 C3.7734375 33 3.7734375 33 6 33 C5.21021997 30.60353007 4.41824215 28.20782392 3.625 25.8125 C3.40328125 25.13896484 3.1815625 24.46542969 2.953125 23.77148438 C2.01044734 20.9295885 1.0724928 18.15643183 -0.1875 15.4375 C-1.83439384 10.49681848 -0.51310957 5.07978475 0 0 Z " fill="#FEFEFE" transform="translate(249,119)"/>
<path d="M0 0 C3.56154311 0.49465877 6.74942908 1.46500818 10 3 C11.60725635 6.21451269 11.05748185 9.43612536 11 13 C10.34 13 9.68 13 9 13 C9.391875 13.721875 9.78375 14.44375 10.1875 15.1875 C11 18 11 18 9.8125 20.8125 C9.214375 21.534375 8.61625 22.25625 8 23 C7.01 23 6.02 23 5 23 C5.165 22.360625 5.33 21.72125 5.5 21.0625 C6.03926667 19.19173179 6.03926667 19.19173179 6 18 C4.35 17.67 2.7 17.34 1 17 C0.505 15.515 0.505 15.515 0 14 C-15.18 14 -30.36 14 -46 14 C-46 13.34 -46 12.68 -46 12 C-47.65 12 -49.3 12 -51 12 C-51 9.03 -51 6.06 -51 3 C-48.03 3 -45.06 3 -42 3 C-42 4.65 -42 6.3 -42 8 C-28.14 8 -14.28 8 0 8 C-0.495 4.535 -0.495 4.535 -1 1 C-0.67 0.67 -0.34 0.34 0 0 Z " fill="#455A64" transform="translate(243,47)"/>
<path d="M0 0 C5.94 0 11.88 0 18 0 C18 9 18 9 17 15 C84.32 15 151.64 15 221 15 C221 15.33 221 15.66 221 16 C148.4 16 75.8 16 1 16 C0.67 10.72 0.34 5.44 0 0 Z " fill="#354751" transform="translate(15,169)"/>
<path d="M0 0 C0.66 0 1.32 0 2 0 C3.02137457 1.65365406 4.01612294 3.32376502 5 5 C6.60843974 7.05629871 8.29638679 9.02012519 10 11 C9.34 11.33 8.68 11.66 8 12 C8 13.98 8 15.96 8 18 C7.34 18 6.68 18 6 18 C5.67 17.01 5.34 16.02 5 15 C4.67 20.28 4.34 25.56 4 31 C19.84 31 35.68 31 52 31 C52 31.33 52 31.66 52 32 C36.16 32 20.32 32 4 32 C4 34.31 4 36.62 4 39 C-40.88 39 -85.76 39 -132 39 C-132 36.69 -132 34.38 -132 32 C-138.93 32 -145.86 32 -153 32 C-153 27.38 -153 22.76 -153 18 C-152.67 18 -152.34 18 -152 18 C-152 22.29 -152 26.58 -152 31 C-145.4 31 -138.8 31 -132 31 C-132 25.06 -132 19.12 -132 13 C-130.68 13.33 -129.36 13.66 -128 14 C-128.66 14 -129.32 14 -130 14 C-130 21.92 -130 29.84 -130 38 C-126.7 37.34 -123.4 36.68 -120 36 C-120 36.33 -120 36.66 -120 37 C-119.39039303 36.99907821 -118.78078606 36.99815641 -118.15270615 36.99720669 C-103.32188394 36.97512551 -88.49106331 36.95857577 -73.66022873 36.94818783 C-66.48816081 36.94303082 -59.31610385 36.93599944 -52.14404297 36.92456055 C-45.89312045 36.91459555 -39.64220588 36.90814224 -33.39127564 36.90591151 C-30.08125078 36.90460749 -26.77125395 36.90101745 -23.46123505 36.89426994 C-19.76678608 36.88703666 -16.07238457 36.88601004 -12.37792969 36.88647461 C-11.27957291 36.88287933 -10.18121613 36.87928406 -9.04957581 36.87557983 C-7.53940132 36.87764183 -7.53940132 36.87764183 -5.99871826 36.87974548 C-5.12485851 36.87882369 -4.25099876 36.8779019 -3.35065842 36.87695217 C-1 37 -1 37 3 38 C3 30.41 3 22.82 3 15 C2.34 15 1.68 15 1 15 C0.67 10.05 0.34 5.1 0 0 Z " fill="#ECE5CF" transform="translate(183,129)"/>
<path d="M0 0 C2.53640917 0.67140243 4.56414975 1.68594624 6.69140625 3.21875 C14.42303733 8.42360537 22.99059339 7.89309226 32 8 C32.495 10.97 32.495 10.97 33 14 C18.15 14 3.3 14 -12 14 C-12 12.02 -12 10.04 -12 8 C-10.13671875 6.171875 -10.13671875 6.171875 -7.6875 4.75 C-6.88699219 4.27046875 -6.08648437 3.7909375 -5.26171875 3.296875 C-4.14216797 2.65492187 -4.14216797 2.65492187 -3 2 C-2.01 1.34 -1.02 0.68 0 0 Z " fill="#97780A" transform="translate(149,114)"/>
<path d="M0 0 C2.64 0 5.28 0 8 0 C8.33 0.99 8.66 1.98 9 3 C10.65 3 12.3 3 14 3 C17 8.75 17 8.75 17 11 C16.01 11.495 16.01 11.495 15 12 C14.67 12.99 14.34 13.98 14 15 C14.99 15.33 15.98 15.66 17 16 C16.34 16.99 15.68 17.98 15 19 C12.66162109 19.34057617 12.66162109 19.34057617 9.7734375 19.29296875 C8.7421875 19.28330078 7.7109375 19.27363281 6.6484375 19.26367188 C5.56820312 19.23853516 4.48796875 19.21339844 3.375 19.1875 C2.28703125 19.17396484 1.1990625 19.16042969 0.078125 19.14648438 C-2.61507409 19.11104754 -5.30729374 19.06164331 -8 19 C-8.90109101 15.81967879 -8.795211 14.18084399 -8 11 C-8.20625 10.34 -8.4125 9.68 -8.625 9 C-9 7 -9 7 -7.875 4.75 C-6 3 -6 3 -3.3125 2.75 C-2.549375 2.8325 -1.78625 2.915 -1 3 C-0.67 2.01 -0.34 1.02 0 0 Z M-0.25 8.6875 C-2.28729536 10.86646986 -2.28729536 10.86646986 -1.875 13.625 C-1.13532087 16.14405125 -1.13532087 16.14405125 1 18 C3.84602594 18.36487512 5.3864306 18.40199375 7.8125 16.8125 C9.44052002 14.32762734 9.50975499 12.91288568 9 10 C7.26961928 8.09798258 7.26961928 8.09798258 5 7 C1.93125 6.7 1.93125 6.7 -0.25 8.6875 Z " fill="#E8E8E8" transform="translate(217,0)"/>
<path d="M0 0 C27.39 0 54.78 0 83 0 C83 0.99 83 1.98 83 3 C55.61 3 28.22 3 0 3 C0 2.01 0 1.02 0 0 Z " fill="#E5E5E5" transform="translate(44,116)"/>
<path d="M0 0 C3.10618756 2.54142619 3.8283365 5.24048843 5 9 C2.02508237 10.44641139 -0.95566126 11.8804181 -3.9375 13.3125 C-4.76830078 13.71662109 -5.59910156 14.12074219 -6.45507812 14.53710938 C-11.86292584 17.12530108 -17.26388543 19.25445221 -23 21 C-23.3125 18.25 -23.3125 18.25 -23 15 C-20.0014061 11.91573199 -16.9703313 10.50228752 -13 9 C-12.34 8.34 -11.68 7.68 -11 7 C-11 5.68 -11 4.36 -11 3 C-10.113125 2.87625 -9.22625 2.7525 -8.3125 2.625 C-5.29612498 2.05587264 -2.79673946 1.23385564 0 0 Z " fill="#9E9E9E" transform="translate(256,156)"/>
<path d="M0 0 C1.423125 0.37125 1.423125 0.37125 2.875 0.75 C4.30804064 3.61608129 4.18144155 5.56300783 3.875 8.75 C1.54867712 13.30959284 -1.22329655 15.75975288 -5.375 18.515625 C-7.94158389 20.32598328 -9.97405216 22.46869168 -12.125 24.75 C-14.31935018 20.36129964 -13.25954895 15.63230883 -11.875 11.125 C-9.84945312 5.51652821 -6.67140203 -0.53371216 0 0 Z " fill="#BB950E" transform="translate(38.125,113.25)"/>
<path d="M0 0 C3.56154311 0.49465877 6.74942908 1.46500818 10 3 C11.60725635 6.21451269 11.05748185 9.43612536 11 13 C10.34 13 9.68 13 9 13 C9.391875 13.721875 9.78375 14.44375 10.1875 15.1875 C11 18 11 18 9.8125 20.8125 C9.214375 21.534375 8.61625 22.25625 8 23 C7.01 23 6.02 23 5 23 C5.165 22.360625 5.33 21.72125 5.5 21.0625 C6.03926667 19.19173179 6.03926667 19.19173179 6 18 C4.35 17.67 2.7 17.34 1 17 C0.505 15.515 0.505 15.515 0 14 C-15.18 14 -30.36 14 -46 14 C-46 13.67 -46 13.34 -46 13 C-31.15 13 -16.3 13 -1 13 C-1 9.04 -1 5.08 -1 1 C-0.67 0.67 -0.34 0.34 0 0 Z " fill="#CBA5A0" transform="translate(243,47)"/>
<path d="M0 0 C2.97 0 5.94 0 9 0 C9 1.32 9 2.64 9 4 C17.58 4 26.16 4 35 4 C35 5.98 35 7.96 35 10 C24.77 10 14.54 10 4 10 C4 9.34 4 8.68 4 8 C2.68 8 1.36 8 0 8 C0 5.36 0 2.72 0 0 Z " fill="#586A72" transform="translate(117,51)"/>
<path d="M0 0 C0.80824219 0.10183594 1.61648437 0.20367187 2.44921875 0.30859375 C3.06410156 0.39238281 3.67898437 0.47617188 4.3125 0.5625 C4.3125 0.8925 4.3125 1.2225 4.3125 1.5625 C2.3325 1.8925 0.3525 2.2225 -1.6875 2.5625 C0.2925 2.5625 2.2725 2.5625 4.3125 2.5625 C4.6425 3.2225 4.9725 3.8825 5.3125 4.5625 C4.69632813 4.60503906 4.08015625 4.64757812 3.4453125 4.69140625 C1.02138391 5.39576593 1.02138391 5.39576593 0.1171875 8.21484375 C-0.18960937 9.29894531 -0.49640625 10.38304687 -0.8125 11.5 C-2.50994556 17.38494556 -2.50994556 17.38494556 -4.6875 19.5625 C-8.74011287 19.90740322 -10.23504176 19.86413882 -13.6875 17.5625 C-15.23060445 12.93318666 -14.46262668 9.67827115 -12.64453125 5.328125 C-9.88503002 0.23712682 -5.36843126 -0.70023016 0 0 Z " fill="#B5900A" transform="translate(16.6875,143.4375)"/>
<path d="M0 0 C1.65 0 3.3 0 5 0 C5.33 0.66 5.66 1.32 6 2 C9.3 2 12.6 2 16 2 C16 1.34 16 0.68 16 0 C17.65 0 19.3 0 21 0 C21 1.98 21 3.96 21 6 C20.34 6 19.68 6 19 6 C19 9.3 19 12.6 19 16 C19.66 16 20.32 16 21 16 C21 17.98 21 19.96 21 22 C20.34 22 19.68 22 19 22 C19 25.3 19 28.6 19 32 C19.66 32 20.32 32 21 32 C21 33.98 21 35.96 21 38 C19.35 38 17.7 38 16 38 C16 37.34 16 36.68 16 36 C12.37 36 8.74 36 5 36 C5 36.66 5 37.32 5 38 C3.35 38 1.7 38 0 38 C0 37.34 0 36.68 0 36 C-0.99 36 -1.98 36 -3 36 C-3 35.34 -3 34.68 -3 34 C-2.01 34 -1.02 34 0 34 C0 33.34 0 32.68 0 32 C1.65 32 3.3 32 5 32 C5.33 32.66 5.66 33.32 6 34 C9.3 34 12.6 34 16 34 C16 33.34 16 32.68 16 32 C16.66 32 17.32 32 18 32 C18 28.7 18 25.4 18 22 C17.34 22 16.68 22 16 22 C16 20.02 16 18.04 16 16 C16.66 16 17.32 16 18 16 C18 12.7 18 9.4 18 6 C17.34 6 16.68 6 16 6 C16 5.34 16 4.68 16 4 C12.37 4 8.74 4 5 4 C5 4.66 5 5.32 5 6 C3.35 6 1.7 6 0 6 C0 5.34 0 4.68 0 4 C-0.99 4 -1.98 4 -3 4 C-3 3.34 -3 2.68 -3 2 C-2.01 2 -1.02 2 0 2 C0 1.34 0 0.68 0 0 Z " fill="#EFEFEF" transform="translate(273,2)"/>
<path d="M0 0 C1.65 0 3.3 0 5 0 C5.33 0.66 5.66 1.32 6 2 C6.639375 2.103125 7.27875 2.20625 7.9375 2.3125 C8.618125 2.539375 9.29875 2.76625 10 3 C11.25 5.5625 11.25 5.5625 12 8 C11.34 8 10.68 8 10 8 C10 8.99 10 9.98 10 11 C10.66 11 11.32 11 12 11 C11.25 13.4375 11.25 13.4375 10 16 C7.9375 16.6875 7.9375 16.6875 6 17 C5.67 17.66 5.34 18.32 5 19 C3.35 19 1.7 19 0 19 C-0.33 18.34 -0.66 17.68 -1 17 C-1.639375 16.896875 -2.27875 16.79375 -2.9375 16.6875 C-3.618125 16.460625 -4.29875 16.23375 -5 16 C-6.25 13.4375 -6.25 13.4375 -7 11 C-6.34 11 -5.68 11 -5 11 C-5 10.01 -5 9.02 -5 8 C-5.66 8 -6.32 8 -7 8 C-6.25 5.5625 -6.25 5.5625 -5 3 C-2.9375 2.3125 -2.9375 2.3125 -1 2 C-0.67 1.34 -0.34 0.68 0 0 Z M1 6 C0.34 6.66 -0.32 7.32 -1 8 C-0.6814823 10.10820797 -0.6814823 10.10820797 0 12 C3.04913228 13.01111093 3.04913228 13.01111093 6 12 C5.67 10.02 5.34 8.04 5 6 C3.68 6 2.36 6 1 6 Z " fill="#EAEAEA" transform="translate(279,61)"/>
<path d="M0 0 C1.65 0 3.3 0 5 0 C5.33 0.66 5.66 1.32 6 2 C6.66 2.144375 7.32 2.28875 8 2.4375 C8.66 2.623125 9.32 2.80875 10 3 C10.33 3.99 10.66 4.98 11 6 C12.98 6 14.96 6 17 6 C17 6.33 17 6.66 17 7 C13.7 7 10.4 7 7 7 C7 18.88 7 30.76 7 43 C6.67 43 6.34 43 6 43 C5.67 34.75 5.34 26.5 5 18 C3.35 18 1.7 18 0 18 C0 17.34 0 16.68 0 16 C-1.65 16 -3.3 16 -5 16 C-6.49821059 12.62902617 -7 10.79557881 -7 7 C-5.6875 4.25 -5.6875 4.25 -4 2 C-3.01 2 -2.02 2 -1 2 C-0.67 1.34 -0.34 0.68 0 0 Z M0 6 C-0.67958603 8.39719432 -0.67958603 8.39719432 -1 11 C-0.34 11.66 0.32 12.32 1 13 C3.10820797 12.6814823 3.10820797 12.6814823 5 12 C5.38218767 10.34385343 5.71395102 8.67542976 6 7 C4.93354885 5.70366379 4.93354885 5.70366379 2.4375 5.9375 C1.633125 5.958125 0.82875 5.97875 0 6 Z " fill="#E7E7E7" transform="translate(13,48)"/>
<path d="M0 0 C2.64 0 5.28 0 8 0 C8 1.32 8 2.64 8 4 C16.58 4 25.16 4 34 4 C34 5.65 34 7.3 34 9 C29.80078534 9.02476851 25.60160971 9.04289246 21.40234375 9.05493164 C19.97460184 9.05995206 18.54686504 9.06676972 17.11914062 9.07543945 C15.06378921 9.08760553 13.00850593 9.09325128 10.953125 9.09765625 C9.09929199 9.10551147 9.09929199 9.10551147 7.20800781 9.11352539 C4.5854329 9.02071737 2.48355406 8.78356673 0 8 C0 5.36 0 2.72 0 0 Z " fill="#465A63" transform="translate(40,95)"/>
<path d="M0 0 C20.46 0 40.92 0 62 0 C62 0.99 62 1.98 62 3 C41.54 3 21.08 3 0 3 C0 2.01 0 1.02 0 0 Z " fill="#E5E5E5" transform="translate(121,84)"/>
<path d="M0 0 C4.63235294 2.26470588 4.63235294 2.26470588 6 5 C6.44536082 10.23298969 6.44536082 10.23298969 4.875 12.9375 C3 14 3 14 0.0625 13.9375 C-3.42262153 12.87062606 -4.46824252 11.53175748 -7 9 C-10.63543901 7.72234735 -10.63543901 7.72234735 -14 7 C-6.54676259 -0.65467626 -6.54676259 -0.65467626 0 0 Z " fill="#BB9715" transform="translate(41,139)"/>
<path d="M0 0 C5.61 0 11.22 0 17 0 C17.33 2.31 17.66 4.62 18 7 C17.01 7.495 17.01 7.495 16 8 C15.71125 7.195625 15.4225 6.39125 15.125 5.5625 C14.26737432 2.8673532 14.26737432 2.8673532 12 2 C12 7.61 12 13.22 12 19 C12.66 19.33 13.32 19.66 14 20 C10.37 20 6.74 20 3 20 C3.99 19.67 4.98 19.34 6 19 C5.67 13.39 5.34 7.78 5 2 C3.02 4.97 3.02 4.97 1 8 C0.67 8 0.34 8 0 8 C0 5.36 0 2.72 0 0 Z " fill="#EAEAEA" transform="translate(267,11)"/>
<path d="M0 0 C4.62 0 9.24 0 14 0 C15.46484375 11.71875 15.46484375 11.71875 15.73022461 13.87695312 C15.98727132 15.89982934 16.27412173 17.91885214 16.5625 19.9375 C17.127928 24.46092402 17.11069185 28.94772343 17.0625 33.5 C17.05798828 34.32242188 17.05347656 35.14484375 17.04882812 35.9921875 C17.03718489 37.99482396 17.01925556 39.99742227 17 42 C15.35 42 13.7 42 12 42 C12 28.47 12 14.94 12 1 C8.04 1 4.08 1 0 1 C0 0.67 0 0.34 0 0 Z " fill="#D9D9D5" transform="translate(249,119)"/>
<path d="M0 0 C13.53 0 27.06 0 41 0 C41 1.32 41 2.64 41 4 C27.47 4 13.94 4 0 4 C0 2.68 0 1.36 0 0 Z " fill="#A98507" transform="translate(210,34)"/>
<path d="M0 0 C3.68952308 2.11399701 6.99786953 4.4634745 10.3125 7.125 C11.19550781 7.82882813 12.07851562 8.53265625 12.98828125 9.2578125 C13.65214844 9.83273438 14.31601563 10.40765625 15 11 C15 11.33 15 11.66 15 12 C12.14479219 12.10876982 9.29379439 12.18766466 6.4375 12.25 C5.23770508 12.30027344 5.23770508 12.30027344 4.01367188 12.3515625 C-1.85890193 12.44744126 -5.14222742 11.31241405 -10 8 C-6.66666667 5.33333333 -3.33333333 2.66666667 0 0 Z " fill="#A88407" transform="translate(166,110)"/>
<path d="M0 0 C3.48249907 3.33108607 5.72746949 6.09445087 6 11 C5.67 11.66 5.34 12.32 5 13 C-4.84248133 11.71029555 -4.84248133 11.71029555 -8.75 9.3125 C-10.58286604 5.92169782 -9.96186371 3.6413412 -9 0 C-5.73616149 -1.63191925 -3.46807101 -0.88171297 0 0 Z " fill="#B89209" transform="translate(14,127)"/>
<path d="M0 0 C1.65 0 3.3 0 5 0 C5 9.57 5 19.14 5 29 C3.02 28.01 1.04 27.02 -1 26 C-0.67 17.42 -0.34 8.84 0 0 Z " fill="#C6C6C4" transform="translate(261,42)"/>
<path d="M0 0 C7.59 0 15.18 0 23 0 C23 1.98 23 3.96 23 6 C15.41 6 7.82 6 0 6 C0 4.02 0 2.04 0 0 Z " fill="#C7A736" transform="translate(142,33)"/>
<path d="M0 0 C0.91644287 0.00523682 1.83288574 0.01047363 2.77709961 0.01586914 C3.76645508 0.0190918 4.75581055 0.02231445 5.77514648 0.02563477 C6.81606445 0.03401367 7.85698242 0.04239258 8.92944336 0.05102539 C10.49662109 0.05779297 10.49662109 0.05779297 12.09545898 0.06469727 C14.68600996 0.07652627 17.27644895 0.0930085 19.86694336 0.11352539 C19.86694336 2.09352539 19.86694336 4.07352539 19.86694336 6.11352539 C12.27694336 6.11352539 4.68694336 6.11352539 -3.13305664 6.11352539 C-3.13305664 0.16674732 -3.13305664 0.16674732 0 0 Z " fill="#C7A735" transform="translate(92.133056640625,32.886474609375)"/>
<path d="M0 0 C3.64581687 -0.02887512 7.29160463 -0.04675585 10.9375 -0.0625 C12.49887695 -0.07506836 12.49887695 -0.07506836 14.09179688 -0.08789062 C15.57583008 -0.09272461 15.57583008 -0.09272461 17.08984375 -0.09765625 C18.46450806 -0.10551147 18.46450806 -0.10551147 19.86694336 -0.11352539 C22 0 22 0 23 1 C23 2.65 23 4.3 23 6 C15.41 6 7.82 6 0 6 C0 4.02 0 2.04 0 0 Z " fill="#C7A836" transform="translate(63,33)"/>
<path d="M0 0 C1.98 0 3.96 0 6 0 C6.1079859 2.43868168 6.18726589 4.87259133 6.25 7.3125 C6.30027344 8.34793945 6.30027344 8.34793945 6.3515625 9.40429688 C6.45059419 14.52918684 6.45059419 14.52918684 4.171875 16.91015625 C1.50569388 18.2480421 -1.13698564 19.16495415 -4 20 C-4.70125 20.20625 -5.4025 20.4125 -6.125 20.625 C-8 21 -8 21 -12 21 C-12.66 20.34 -13.32 19.68 -14 19 C-11.54379149 17.82866942 -9.08525083 16.66278278 -6.625 15.5 C-5.92632812 15.16613281 -5.22765625 14.83226562 -4.5078125 14.48828125 C0.7734375 12 0.7734375 12 3 12 C2.01 8.04 1.02 4.08 0 0 Z " fill="#F5E7E5" transform="translate(252,140)"/>
<path d="M0 0 C7.26 0 14.52 0 22 0 C22 1.98 22 3.96 22 6 C14.74 6 7.48 6 0 6 C0 4.02 0 2.04 0 0 Z " fill="#C8A837" transform="translate(169,33)"/>
<path d="M0 0 C0.33 0 0.66 0 1 0 C0.67 3.63 0.34 7.26 0 11 C1.32 10.67 2.64 10.34 4 10 C3.814375 10.804375 3.62875 11.60875 3.4375 12.4375 C2.90389972 16.78253084 3.3774296 20.68989724 4 25 C3.34 25 2.68 25 2 25 C1.67 23.68 1.34 22.36 1 21 C0.67 22.32 0.34 23.64 0 25 C-1.32 25 -2.64 25 -4 25 C-4 20.38 -4 15.76 -4 11 C-7.63 11.33 -11.26 11.66 -15 12 C-14 10 -14 10 -11 9 C-8.66700175 8.96045766 -6.33291811 8.95598268 -4 9 C-4.515625 8.05125 -5.03125 7.1025 -5.5625 6.125 C-6.036875 5.09375 -6.51125 4.0625 -7 3 C-6.67 2.34 -6.34 1.68 -6 1 C-4.68 2.65 -3.36 4.3 -2 6 C-1.34 4.02 -0.68 2.04 0 0 Z M-2 21 C-1 23 -1 23 -1 23 Z " fill="#263238" transform="translate(25,136)"/>
<path d="M0 0 C2.475 0.495 2.475 0.495 5 1 C5 1.33 5 1.66 5 2 C6.74991334 2.02715383 8.49994945 2.04646551 10.25 2.0625 C11.22453125 2.07410156 12.1990625 2.08570312 13.203125 2.09765625 C15.6874074 2.01091455 17.62598221 1.66161151 20 1 C22.66135848 0.60662402 25.32721773 0.3118246 28 0 C28 0.99 28 1.98 28 3 C26.68 3 25.36 3 24 3 C24 6.63 24 10.26 24 14 C24.66 14 25.32 14 26 14 C26.495 16.475 26.495 16.475 27 19 C26.01 19 25.02 19 24 19 C24 22.96 24 26.92 24 31 C23.67 31 23.34 31 23 31 C23 22.09 23 13.18 23 4 C8.48 4 -6.04 4 -21 4 C-21 3.67 -21 3.34 -21 3 C-14.07 3 -7.14 3 0 3 C0 2.01 0 1.02 0 0 Z " fill="#D3CAA9" transform="translate(158,96)"/>
<path d="M0 0 C0.99 0 1.98 0 3 0 C3 6.27 3 12.54 3 19 C5.64 19 8.28 19 11 19 C11 24.61 11 30.22 11 36 C9.515 36.495 9.515 36.495 8 37 C8.33 31.39 8.66 25.78 9 20 C6.69 20 4.38 20 2 20 C-1.35421336 13.02323621 -1.04977105 7.58870639 0 0 Z " fill="#F1F1F1" transform="translate(249,120)"/>
<path d="M0 0 C1.32 0.33 2.64 0.66 4 1 C3.34 1 2.68 1 2 1 C2 8.92 2 16.84 2 25 C2.99 25.33 3.98 25.66 5 26 C3.35 26 1.7 26 0 26 C0 23.69 0 21.38 0 19 C-6.93 19 -13.86 19 -21 19 C-21 14.38 -21 9.76 -21 5 C-20.67 5 -20.34 5 -20 5 C-20 9.29 -20 13.58 -20 18 C-13.4 18 -6.8 18 0 18 C0 12.06 0 6.12 0 0 Z " fill="#DAD1B2" transform="translate(51,142)"/>
<path d="M0 0 C3.63 0 7.26 0 11 0 C11.16214954 4.20988241 11.28101349 8.4135091 11.375 12.625 C11.45041016 14.40970703 11.45041016 14.40970703 11.52734375 16.23046875 C11.69314911 26.12352172 11.69314911 26.12352172 8.1640625 29.8359375 C5 32 5 32 2 32 C2.62759865 29.07120629 3.58622659 26.63904371 5 24 C4.505 23.54625 4.01 23.0925 3.5 22.625 C2 21 2 21 2 19 C5.61855575 19.62388892 6.1709277 20.1709277 9 23 C9.33 15.74 9.66 8.48 10 1 C6.7 1 3.4 1 0 1 C0 0.67 0 0.34 0 0 Z " fill="#DEDEDE" transform="translate(20,91)"/>
<path d="M0 0 C7.26 0 14.52 0 22 0 C22 1.32 22 2.64 22 4 C14.74 4 7.48 4 0 4 C0 2.68 0 1.36 0 0 Z " fill="#A98507" transform="translate(116,34)"/>
<path d="M0 0 C0.66 0 1.32 0 2 0 C3.02137457 1.65365406 4.01612294 3.32376502 5 5 C6.60843974 7.05629871 8.29638679 9.02012519 10 11 C9.01 11.495 9.01 11.495 8 12 C8 13.98 8 15.96 8 18 C7.34 18 6.68 18 6 18 C5.67 16.35 5.34 14.7 5 13 C3.02 13.99 3.02 13.99 1 15 C0.67 10.05 0.34 5.1 0 0 Z " fill="#2B373D" transform="translate(183,129)"/>
<path d="M0 0 C0.99 0 1.98 0 3 0 C2.67 3.3 2.34 6.6 2 10 C12.56 10 23.12 10 34 10 C34 10.33 34 10.66 34 11 C22.12 11 10.24 11 -2 11 C-1 1 -1 1 0 0 Z " fill="#76681E" transform="translate(238,174)"/>
<path d="M0 0 C-0.38267447 2.38164505 -0.63056617 3.66731093 -2.453125 5.30859375 C-3.04609375 5.68113281 -3.6390625 6.05367187 -4.25 6.4375 C-7.60544118 8.66523621 -10.24022906 11.07297022 -13 14 C-13 11.69 -13 9.38 -13 7 C-12.34 6.67 -11.68 6.34 -11 6 C-10.34444881 3.47266765 -10.34444881 3.47266765 -10 1 C-3.375 0 -3.375 0 0 0 Z " fill="#A38514" transform="translate(39,124)"/>
<path d="M0 0 C6.87861272 1.17919075 6.87861272 1.17919075 10 3 C10.8125 6.125 10.8125 6.125 11 9 C10.01 9.66 9.02 10.32 8 11 C8 9.68 8 8.36 8 7 C5.69 7.33 3.38 7.66 1 8 C-0.42944945 5.64561267 -1.08661261 4.51967567 -0.625 1.75 C-0.41875 1.1725 -0.2125 0.595 0 0 Z " fill="#373F45" transform="translate(243,47)"/>
<path d="M0 0 C2.97 0 5.94 0 9 0 C9 1.65 9 3.3 9 5 C7.68 5 6.36 5 5 5 C5 6.32 5 7.64 5 9 C3.35 9 1.7 9 0 9 C0 6.03 0 3.06 0 0 Z " fill="#BF9F2A" transform="translate(192,50)"/>
<path d="M0 0 C0.66 1.32 1.32 2.64 2 4 C1.01 5.485 1.01 5.485 0 7 C-0.66 7 -1.32 7 -2 7 C-2.4021875 8.2065625 -2.4021875 8.2065625 -2.8125 9.4375 C-3.204375 10.283125 -3.59625 11.12875 -4 12 C-4.99 12.33 -5.98 12.66 -7 13 C-7 14.65 -7 16.3 -7 18 C-7.33 18 -7.66 18 -8 18 C-8.20724287 12.92254974 -7.96085275 8.72387253 -6 4 C-2.875 1.5625 -2.875 1.5625 0 0 Z " fill="#AC8A0C" transform="translate(33,118)"/>
<path d="M0 0 C0.66 0.33 1.32 0.66 2 1 C3.99960012 1.039992 6.00047242 1.04346799 8 1 C8.33 1.99 8.66 2.98 9 4 C9.66 3.67 10.32 3.34 11 3 C11 4.32 11 5.64 11 7 C10.01 7.33 9.02 7.66 8 8 C8 7.34 8 6.68 8 6 C7.443125 6.350625 6.88625 6.70125 6.3125 7.0625 C3.46113217 8.21845993 1.91482778 7.80967438 -1 7 C-0.67 4.69 -0.34 2.38 0 0 Z " fill="#DFA09A" transform="translate(243,53)"/>
<path d="M0 0 C-0.33 0.66 -0.66 1.32 -1 2 C-1.99 2 -2.98 2 -4 2 C-4.99 3.485 -4.99 3.485 -6 5 C-10.08378077 5 -13.12315913 4.19287411 -17 3 C-13.50025054 -3.99949893 -6.0391471 -1.65897519 0 0 Z " fill="#AA8A14" transform="translate(44,143)"/>
<path d="M0 0 C5.94 0 11.88 0 18 0 C18 0.99 18 1.98 18 3 C12.06 3 6.12 3 0 3 C0 2.01 0 1.02 0 0 Z " fill="#2C3A41" transform="translate(15,166)"/>
<path d="M0 0 C-0.33 0.5775 -0.66 1.155 -1 1.75 C-2.27075898 4.19883862 -2.27075898 4.19883862 -2 8 C-1.34 8.66 -0.68 9.32 0 10 C0 10.99 0 11.98 0 13 C-3.7726764 12.46104623 -5.68212991 11.00464642 -8 8 C-8 5.06496242 -7.00504775 4.0060573 -5.125 1.75 C-3 0 -3 0 0 0 Z " fill="#EAEAEA" transform="translate(11,110)"/>
<path d="M0 0 C2.475 0.495 2.475 0.495 5 1 C5 1.33 5 1.66 5 2 C10.94 2.33 16.88 2.66 23 3 C23 3.33 23 3.66 23 4 C8.48 4 -6.04 4 -21 4 C-21 3.67 -21 3.34 -21 3 C-14.07 3 -7.14 3 0 3 C0 2.01 0 1.02 0 0 Z " fill="#DED7BB" transform="translate(158,96)"/>
<path d="M0 0 C2.64 1.65 5.28 3.3 8 5 C7.01 5.495 7.01 5.495 6 6 C6 6.66 6 7.32 6 8 C2.7 8 -0.6 8 -4 8 C-2.87548273 5.0280615 -1.77706209 2.66559313 0 0 Z " fill="#F1ADA2" transform="translate(233,77)"/>
<path d="M0 0 C1.65 0 3.3 0 5 0 C5.33 0.66 5.66 1.32 6 2 C7.98 2 9.96 2 12 2 C12 2.66 12 3.32 12 4 C9.69 4 7.38 4 5 4 C5 4.66 5 5.32 5 6 C4.34 6 3.68 6 3 6 C3 9.3 3 12.6 3 16 C2.67 16 2.34 16 2 16 C2 12.7 2 9.4 2 6 C1.34 6 0.68 6 0 6 C0 4.02 0 2.04 0 0 Z " fill="#EEEEEE" transform="translate(257,2)"/>
<path d="M0 0 C2.97 0 5.94 0 9 0 C9 1.32 9 2.64 9 4 C7.35 4 5.7 4 4 4 C4 5.32 4 6.64 4 8 C2.68 8 1.36 8 0 8 C0 5.36 0 2.72 0 0 Z " fill="#BC9712" transform="translate(117,51)"/>
<path d="M0 0 C0.33 0 0.66 0 1 0 C0.91253716 1.43861294 0.80434652 2.87597508 0.6875 4.3125 C0.62949219 5.11300781 0.57148438 5.91351563 0.51171875 6.73828125 C-0.08206694 9.36272334 -0.95780294 10.30820672 -3 12 C-3.33 11.67 -3.66 11.34 -4 11 C-5.85772162 11.08984301 -7.71247985 11.24611861 -9.5625 11.4375 C-10.57441406 11.53933594 -11.58632812 11.64117187 -12.62890625 11.74609375 C-13.80259766 11.87177734 -13.80259766 11.87177734 -15 12 C-14 10 -14 10 -11 9 C-8.66700175 8.96045766 -6.33291811 8.95598268 -4 9 C-4.515625 8.05125 -5.03125 7.1025 -5.5625 6.125 C-6.036875 5.09375 -6.51125 4.0625 -7 3 C-6.67 2.34 -6.34 1.68 -6 1 C-4.68 2.65 -3.36 4.3 -2 6 C-1.34 4.02 -0.68 2.04 0 0 Z " fill="#393E31" transform="translate(25,136)"/>
<path d="M0 0 C1.4540625 0.0309375 1.4540625 0.0309375 2.9375 0.0625 C3.5625 2.4375 3.5625 2.4375 3.9375 5.0625 C1.9375 7.0625 1.9375 7.0625 -0.625 7.25 C-3.0625 7.0625 -3.0625 7.0625 -4.0625 6.0625 C-4.1875 3.5625 -4.1875 3.5625 -4.0625 1.0625 C-3.0625 0.0625 -3.0625 0.0625 0 0 Z " fill="#A98507" transform="translate(145.0625,103.9375)"/>
<path d="M0 0 C2.64 0 5.28 0 8 0 C8 1.32 8 2.64 8 4 C6.68 4 5.36 4 4 4 C4 5.32 4 6.64 4 8 C2.68 8 1.36 8 0 8 C0 5.36 0 2.72 0 0 Z " fill="#B89209" transform="translate(40,95)"/>
<path d="M0 0 C1.98 0 3.96 0 6 0 C6.25 7.625 6.25 7.625 4 11 C3.32880451 9.5437455 2.66318193 8.08492133 2 6.625 C1.62875 5.81289062 1.2575 5.00078125 0.875 4.1640625 C0 2 0 2 0 0 Z " fill="#A88C24" transform="translate(243,119)"/>
<path d="M0 0 C0.66 0 1.32 0 2 0 C1.40895235 4.84659077 0.02055843 8.60748167 -2 13 C-2.99 13 -3.98 13 -5 13 C-4.39254603 8.14036821 -2.27241033 4.2594482 0 0 Z " fill="#EAEAEA" transform="translate(19,110)"/>
<path d="M0 0 C0.66 0 1.32 0 2 0 C2 5.28 2 10.56 2 16 C1.34 15.67 0.68 15.34 0 15 C-1.01467144 9.64991422 -0.99956022 5.33098784 0 0 Z " fill="#FCFCFA" transform="translate(249,120)"/>
<path d="M0 0 C2.64 0.33 5.28 0.66 8 1 C4.50912907 5.0042343 2.35048061 6.62671065 -3 7 C-2.01 4.69 -1.02 2.38 0 0 Z " fill="#6A6954" transform="translate(239,161)"/>
<path d="M0 0 C1.98 0 3.96 0 6 0 C6.042721 1.66611905 6.04063832 3.33382885 6 5 C5 6 5 6 2.4375 6.0625 C1.2309375 6.0315625 1.2309375 6.0315625 0 6 C0 4.02 0 2.04 0 0 Z " fill="#D1B85B" transform="translate(40,33)"/>
<path d="M0 0 C1.20628008 2.33214148 2.1654738 4.49642139 3 7 C0 9 0 9 -2.1875 8.625 C-2.785625 8.41875 -3.38375 8.2125 -4 8 C-2.87548273 5.0280615 -1.77706209 2.66559313 0 0 Z " fill="#9FA0A1" transform="translate(217,115)"/>
<path d="M0 0 C1.65 0 3.3 0 5 0 C5 1.98 5 3.96 5 6 C3.35 6 1.7 6 0 6 C0 4.02 0 2.04 0 0 Z " fill="#A88406" transform="translate(263,119)"/>
<path d="M0 0 C-0.66 0 -1.32 0 -2 0 C-2 0.66 -2 1.32 -2 2 C-3.24420647 2.5345256 -4.49570936 3.05208611 -5.75 3.5625 C-6.44609375 3.85253906 -7.1421875 4.14257812 -7.859375 4.44140625 C-10.30012784 5.07831803 -11.6403655 4.80248831 -14 4 C-13.360625 3.87625 -12.72125 3.7525 -12.0625 3.625 C-11.381875 3.41875 -10.70125 3.2125 -10 3 C-9.67 2.34 -9.34 1.68 -9 1 C-3.6407767 -1.21359223 -3.6407767 -1.21359223 0 0 Z " fill="#949592" transform="translate(248,170)"/>
<path d="M0 0 C0 0.99 0 1.98 0 3 C-4.25566547 4.16063604 -7.6835078 3.76173392 -12 3 C-11.67 2.34 -11.34 1.68 -11 1 C-7.25801961 0.29396596 -3.81207261 0 0 0 Z " fill="#BABDBF" transform="translate(186,96)"/>
<path d="M0 0 C1.33998047 0.31324219 1.33998047 0.31324219 2.70703125 0.6328125 C3.60808594 0.83648437 4.50914063 1.04015625 5.4375 1.25 C6.46810547 1.50136719 6.46810547 1.50136719 7.51953125 1.7578125 C7.18953125 2.4178125 6.85953125 3.0778125 6.51953125 3.7578125 C5.57078125 3.5721875 4.62203125 3.3865625 3.64453125 3.1953125 C0.62084332 2.47094618 0.62084332 2.47094618 -1.48046875 3.7578125 C-3.60546875 2.8203125 -3.60546875 2.8203125 -5.48046875 1.7578125 C-2.48046875 -0.2421875 -2.48046875 -0.2421875 0 0 Z " fill="#8A7417" transform="translate(36.48046875,141.2421875)"/>
<path d="M0 0 C0.99 0.33 1.98 0.66 3 1 C1.75023244 4.65316671 1.32901247 5.78065836 -2 8 C-2 5.69 -2 3.38 -2 1 C-1.34 0.67 -0.68 0.34 0 0 Z " fill="#917916" transform="translate(28,130)"/>
<path d="M0 0 C0.99 0 1.98 0 3 0 C3.66 2.31 4.32 4.62 5 7 C2.36 6.34 -0.28 5.68 -3 5 C-1.6875 2.5 -1.6875 2.5 0 0 Z " fill="#987C13" transform="translate(15,131)"/>
<path d="M0 0 C0.66 1.32 1.32 2.64 2 4 C1.34 4.66 0.68 5.32 0 6 C-2.625 5.625 -2.625 5.625 -5 5 C-4.67 3.68 -4.34 2.36 -4 1 C-2.68 0.67 -1.36 0.34 0 0 Z " fill="#B28583" transform="translate(247,55)"/>
<path d="M0 0 C1.32 0.66 2.64 1.32 4 2 C4 2.99 4 3.98 4 5 C3.01 5.33 2.02 5.66 1 6 C0.34 5.34 -0.32 4.68 -1 4 C-0.625 1.875 -0.625 1.875 0 0 Z " fill="#AE8B0B" transform="translate(12,127)"/>
<path d="M0 0 C1 3 1 3 0.0625 5.1875 C-0.4634375 6.0846875 -0.4634375 6.0846875 -1 7 C-2.32 6.67 -3.64 6.34 -5 6 C-5 5.01 -5 4.02 -5 3 C-2.5 1.3125 -2.5 1.3125 0 0 Z " fill="#A7840B" transform="translate(243,75)"/>
<path d="M0 0 C0 3.10551666 -0.5393715 4.35261084 -2 7 C-0.35 6.34 1.3 5.68 3 5 C2.67 5.99 2.34 6.98 2 8 C1.01 8.33 0.02 8.66 -1 9 C-1.66 8.67 -2.32 8.34 -3 8 C-3.625 5.4375 -3.625 5.4375 -4 3 C-2.68 2.01 -1.36 1.02 0 0 Z " fill="#937935" transform="translate(250,63)"/>
<path d="M0 0 C1.65 0 3.3 0 5 0 C5 0.66 5 1.32 5 2 C4.01 2.495 4.01 2.495 3 3 C3.33 3.66 3.66 4.32 4 5 C2.68 5.33 1.36 5.66 0 6 C0 4.02 0 2.04 0 0 Z " fill="#A4A4A4" transform="translate(233,171)"/>
<path d="M0 0 C1.65 0 3.3 0 5 0 C5 1.32 5 2.64 5 4 C3.35 4 1.7 4 0 4 C0 2.68 0 1.36 0 0 Z " fill="#EDE2BD" transform="translate(251,34)"/>
<path d="M0 0 C0.66 0.33 1.32 0.66 2 1 C2 2.98 2 4.96 2 7 C0.68 6.01 -0.64 5.02 -2 4 C-1.34 2.68 -0.68 1.36 0 0 Z " fill="#BC961B" transform="translate(236,74)"/>
</svg>
